<svg xmlns="http://www.w3.org/2000/svg" xmlns:xlink="http://www.w3.org/1999/xlink" contentStyleType="text/css" data-diagram-type="CLASS" height="328px" preserveAspectRatio="none" style="width:424px;height:328px;background:#FFFFFF;" version="1.1" viewBox="0 0 424 328" width="424px" zoomAndPan="magnify"><defs/><g><!--class Building--><g class="entity" data-entity="Building" data-source-line="2" data-uid="ent0002" id="entity_Building"><rect fill="#F1F1F1" height="64.2969" rx="2.5" ry="2.5" style="stroke:#181818;stroke-width:0.5;" width="198.0811" x="112.47" y="132"/><ellipse cx="178.864" cy="148" fill="#ADD1B2" rx="11" ry="11" style="stroke:#181818;stroke-width:1;"/><path d="M181.8328,153.6406 Q181.2547,153.9375 180.614,154.0781 Q179.9734,154.2344 179.2703,154.2344 Q176.7703,154.2344 175.4422,152.5937 Q174.1297,150.9375 174.1297,147.8125 Q174.1297,144.6875 175.4422,143.0312 Q176.7703,141.375 179.2703,141.375 Q179.9734,141.375 180.614,141.5312 Q181.2703,141.6875 181.8328,141.9844 L181.8328,144.7031 Q181.2078,144.125 180.614,143.8594 Q180.0203,143.5781 179.3953,143.5781 Q178.0515,143.5781 177.364,144.6562 Q176.6765,145.7187 176.6765,147.8125 Q176.6765,149.9062 177.364,150.9844 Q178.0515,152.0469 179.3953,152.0469 Q180.0203,152.0469 180.614,151.7812 Q181.2078,151.5 181.8328,150.9219 L181.8328,153.6406 Z " fill="#000000"/><text fill="#000000" font-family="sans-serif" font-size="14" lengthAdjust="spacing" textLength="56.793" x="199.364" y="152.8467">Building</text><line style="stroke:#181818;stroke-width:0.5;" x1="113.47" x2="309.5511" y1="164" y2="164"/><text fill="#000000" font-family="sans-serif" font-size="14" lengthAdjust="spacing" textLength="186.0811" x="118.47" y="180.9951">// Basisklasse f&#252;r Geb&#228;ude</text><line style="stroke:#181818;stroke-width:0.5;" x1="113.47" x2="309.5511" y1="188.2969" y2="188.2969"/></g><!--class House--><g class="entity" data-entity="House" data-source-line="6" data-uid="ent0003" id="entity_House"><rect fill="#F1F1F1" height="64.2969" rx="2.5" ry="2.5" style="stroke:#181818;stroke-width:0.5;" width="187.0137" x="7" y="257.29"/><ellipse cx="74.3203" cy="273.29" fill="#ADD1B2" rx="11" ry="11" style="stroke:#181818;stroke-width:1;"/><path d="M77.2891,278.9306 Q76.7109,279.2275 76.0703,279.3681 Q75.4297,279.5244 74.7266,279.5244 Q72.2266,279.5244 70.8984,277.8837 Q69.5859,276.2275 69.5859,273.1025 Q69.5859,269.9775 70.8984,268.3212 Q72.2266,266.665 74.7266,266.665 Q75.4297,266.665 76.0703,266.8212 Q76.7266,266.9775 77.2891,267.2744 L77.2891,269.9931 Q76.6641,269.415 76.0703,269.1494 Q75.4766,268.8681 74.8516,268.8681 Q73.5078,268.8681 72.8203,269.9462 Q72.1328,271.0087 72.1328,273.1025 Q72.1328,275.1962 72.8203,276.2744 Q73.5078,277.3369 74.8516,277.3369 Q75.4766,277.3369 76.0703,277.0712 Q76.6641,276.79 77.2891,276.2119 L77.2891,278.9306 Z " fill="#000000"/><text fill="#000000" font-family="sans-serif" font-size="14" lengthAdjust="spacing" textLength="43.873" x="94.8203" y="278.1367">House</text><line style="stroke:#181818;stroke-width:0.5;" x1="8" x2="193.0137" y1="289.29" y2="289.29"/><text fill="#000000" font-family="sans-serif" font-size="14" lengthAdjust="spacing" textLength="175.0137" x="13" y="306.2851">// Repr&#228;sentiert ein Haus</text><line style="stroke:#181818;stroke-width:0.5;" x1="8" x2="193.0137" y1="313.5869" y2="313.5869"/></g><!--class Hotel--><g class="entity" data-entity="Hotel" data-source-line="10" data-uid="ent0004" id="entity_Hotel"><rect fill="#F1F1F1" height="64.2969" rx="2.5" ry="2.5" style="stroke:#181818;stroke-width:0.5;" width="188.8252" x="229.09" y="257.29"/><ellipse cx="300.7101" cy="273.29" fill="#ADD1B2" rx="11" ry="11" style="stroke:#181818;stroke-width:1;"/><path d="M303.6789,278.9306 Q303.1007,279.2275 302.4601,279.3681 Q301.8195,279.5244 301.1164,279.5244 Q298.6164,279.5244 297.2882,277.8837 Q295.9757,276.2275 295.9757,273.1025 Q295.9757,269.9775 297.2882,268.3212 Q298.6164,266.665 301.1164,266.665 Q301.8195,266.665 302.4601,266.8212 Q303.1164,266.9775 303.6789,267.2744 L303.6789,269.9931 Q303.0539,269.415 302.4601,269.1494 Q301.8664,268.8681 301.2414,268.8681 Q299.8976,268.8681 299.2101,269.9462 Q298.5226,271.0087 298.5226,273.1025 Q298.5226,275.1962 299.2101,276.2744 Q299.8976,277.3369 301.2414,277.3369 Q301.8664,277.3369 302.4601,277.0712 Q303.0539,276.79 303.6789,276.2119 L303.6789,278.9306 Z " fill="#000000"/><text fill="#000000" font-family="sans-serif" font-size="14" lengthAdjust="spacing" textLength="37.085" x="321.2101" y="278.1367">Hotel</text><line style="stroke:#181818;stroke-width:0.5;" x1="230.09" x2="416.9152" y1="289.29" y2="289.29"/><text fill="#000000" font-family="sans-serif" font-size="14" lengthAdjust="spacing" textLength="176.8252" x="235.09" y="306.2851">// Repr&#228;sentiert ein Hotel</text><line style="stroke:#181818;stroke-width:0.5;" x1="230.09" x2="416.9152" y1="313.5869" y2="313.5869"/></g><!--class HousableProperty--><g class="entity" data-entity="HousableProperty" data-source-line="15" data-uid="ent0005" id="entity_HousableProperty"><rect fill="#F1F1F1" height="48" rx="2.5" ry="2.5" style="stroke:#181818;stroke-width:0.5;" width="157.0225" x="133" y="7"/><ellipse cx="148" cy="23" fill="#ADD1B2" rx="11" ry="11" style="stroke:#181818;stroke-width:1;"/><path d="M150.9688,28.6406 Q150.3906,28.9375 149.75,29.0781 Q149.1094,29.2344 148.4063,29.2344 Q145.9063,29.2344 144.5781,27.5938 Q143.2656,25.9375 143.2656,22.8125 Q143.2656,19.6875 144.5781,18.0313 Q145.9063,16.375 148.4063,16.375 Q149.1094,16.375 149.75,16.5313 Q150.4063,16.6875 150.9688,16.9844 L150.9688,19.7031 Q150.3438,19.125 149.75,18.8594 Q149.1563,18.5781 148.5313,18.5781 Q147.1875,18.5781 146.5,19.6563 Q145.8125,20.7188 145.8125,22.8125 Q145.8125,24.9063 146.5,25.9844 Q147.1875,27.0469 148.5313,27.0469 Q149.1563,27.0469 149.75,26.7813 Q150.3438,26.5 150.9688,25.9219 L150.9688,28.6406 Z " fill="#000000"/><text fill="#000000" font-family="sans-serif" font-size="14" lengthAdjust="spacing" textLength="125.0225" x="162" y="27.8467">HousableProperty</text><line style="stroke:#181818;stroke-width:0.5;" x1="134" x2="289.0225" y1="39" y2="39"/><line style="stroke:#181818;stroke-width:0.5;" x1="134" x2="289.0225" y1="47" y2="47"/></g><!--reverse link HousableProperty to Building--><g class="link" data-entity-1="HousableProperty" data-entity-2="Building" data-source-line="15" data-uid="lnk6" id="link_HousableProperty_Building"><path codeLine="15" d="M211.51,67.44 C211.51,88.66 211.51,108.09 211.51,131.52" fill="none" id="HousableProperty-backto-Building" style="stroke:#181818;stroke-width:1;"/><polygon fill="#181818" points="211.51,55.44,207.51,61.44,211.51,67.44,215.51,61.44,211.51,55.44" style="stroke:#181818;stroke-width:1;"/><text fill="#000000" font-family="sans-serif" font-size="13" lengthAdjust="spacing" textLength="22.9785" x="212.51" y="98.0669">has</text><text fill="#000000" font-family="sans-serif" font-size="13" lengthAdjust="spacing" textLength="8.271" x="202.616" y="74.9084">1</text><text fill="#000000" font-family="sans-serif" font-size="13" lengthAdjust="spacing" textLength="6.5" x="204.9857" y="120.9501">*</text></g><!--reverse link Building to House--><g class="link" data-entity-1="Building" data-entity-2="House" data-source-line="16" data-uid="lnk7" id="link_Building_House"><path codeLine="16" d="M171.1666,209.9575 C154.4666,228.5075 145.44,238.53 128.75,257.07" fill="none" id="Building-backto-House" style="stroke:#181818;stroke-width:1;"/><polygon fill="none" points="183.21,196.58,166.7075,205.943,175.6258,213.972,183.21,196.58" style="stroke:#181818;stroke-width:1;"/></g><!--reverse link Building to Hotel--><g class="link" data-entity-1="Building" data-entity-2="Hotel" data-source-line="17" data-uid="lnk8" id="link_Building_Hotel"><path codeLine="17" d="M252.1627,209.9038 C269.0127,228.4538 278.17,238.53 295.01,257.07" fill="none" id="Building-backto-Hotel" style="stroke:#181818;stroke-width:1;"/><polygon fill="none" points="240.06,196.58,247.7215,213.938,256.604,205.8695,240.06,196.58" style="stroke:#181818;stroke-width:1;"/></g><!--SRC=[VOv12i8m44NtESMGJQ5GYbjnLHTsATuWjQCT34d990jHRzDZkCl5J8fKGN0smyn_d_yBs6h5Z2oEUKCJIFTapd0JaAQkeL5CV9aXECMdWnrsSGezYeTucreRahWu3ZYwE34QJ-Wy81beLU1ltgF-psSY6ugaQkN96XveP96ZLATnx-oOu2l8bOIoga2MybD-3ODYiPoRUmBcaZ-_5FC2]--></g></svg>