<svg xmlns="http://www.w3.org/2000/svg" xmlns:xlink="http://www.w3.org/1999/xlink" contentStyleType="text/css" data-diagram-type="CLASS" height="502px" preserveAspectRatio="none" style="width:1950px;height:502px;background:#FFFFFF;" version="1.1" viewBox="0 0 1950 502" width="1950px" zoomAndPan="magnify"><defs/><g><!--class Ownable--><g class="entity" data-entity="Ownable" data-source-line="2" data-uid="ent0002" id="entity_Ownable"><rect fill="#F1F1F1" height="64.2969" rx="2.5" ry="2.5" style="stroke:#181818;stroke-width:0.5;" width="391.5928" x="458.06" y="289.6"/><ellipse cx="618.9506" cy="305.6" fill="#B4A7E5" rx="11" ry="11" style="stroke:#181818;stroke-width:1;"/><path d="M614.8725,301.3656 L614.8725,299.2094 L622.2631,299.2094 L622.2631,301.3656 L619.7944,301.3656 L619.7944,309.4437 L622.2631,309.4437 L622.2631,311.6 L614.8725,311.6 L614.8725,309.4437 L617.3413,309.4437 L617.3413,301.3656 L614.8725,301.3656 Z " fill="#000000"/><text fill="#000000" font-family="sans-serif" font-size="14" font-style="italic" lengthAdjust="spacing" textLength="61.3115" x="639.4506" y="310.4467">Ownable</text><line style="stroke:#181818;stroke-width:0.5;" x1="459.06" x2="848.6528" y1="321.6" y2="321.6"/><text fill="#000000" font-family="sans-serif" font-size="14" lengthAdjust="spacing" textLength="379.5928" x="464.06" y="338.5951">// Definiert die Eigenschaften eines kaufbaren Objekts</text><line style="stroke:#181818;stroke-width:0.5;" x1="459.06" x2="848.6528" y1="345.8969" y2="345.8969"/></g><!--class PropertyGroup--><g class="entity" data-entity="PropertyGroup" data-source-line="6" data-uid="ent0003" id="entity_PropertyGroup"><rect fill="#F1F1F1" height="64.2969" rx="2.5" ry="2.5" style="stroke:#181818;stroke-width:0.5;" width="415.7031" x="7" y="289.6"/><ellipse cx="159.2397" cy="305.6" fill="#B4A7E5" rx="11" ry="11" style="stroke:#181818;stroke-width:1;"/><path d="M155.1616,301.3656 L155.1616,299.2094 L162.5522,299.2094 L162.5522,301.3656 L160.0835,301.3656 L160.0835,309.4437 L162.5522,309.4437 L162.5522,311.6 L155.1616,311.6 L155.1616,309.4437 L157.6304,309.4437 L157.6304,301.3656 L155.1616,301.3656 Z " fill="#000000"/><text fill="#000000" font-family="sans-serif" font-size="14" font-style="italic" lengthAdjust="spacing" textLength="102.7236" x="179.7397" y="310.4467">PropertyGroup</text><line style="stroke:#181818;stroke-width:0.5;" x1="8" x2="421.7031" y1="321.6" y2="321.6"/><text fill="#000000" font-family="sans-serif" font-size="14" lengthAdjust="spacing" textLength="403.7031" x="13" y="338.5951">// Verwaltet eine Gruppe zusammengeh&#246;riger Immobilien</text><line style="stroke:#181818;stroke-width:0.5;" x1="8" x2="421.7031" y1="345.8969" y2="345.8969"/></g><!--class Property--><g class="entity" data-entity="Property" data-source-line="11" data-uid="ent0004" id="entity_Property"><rect fill="#F1F1F1" height="64.2969" rx="2.5" ry="2.5" style="stroke:#181818;stroke-width:0.5;" width="317.8604" x="849.92" y="148.3"/><ellipse cx="974.7032" cy="164.3" fill="#A9DCDF" rx="11" ry="11" style="stroke:#181818;stroke-width:1;"/><path d="M974.8126,159.6438 L973.6563,164.7219 L975.9845,164.7219 L974.8126,159.6438 Z M973.3282,157.4094 L976.3126,157.4094 L979.672,169.8 L977.2188,169.8 L976.4532,166.7375 L973.172,166.7375 L972.422,169.8 L969.9845,169.8 L973.3282,157.4094 Z " fill="#000000"/><text fill="#000000" font-family="sans-serif" font-size="14" font-style="italic" lengthAdjust="spacing" textLength="59.7939" x="995.2032" y="169.1467">Property</text><line style="stroke:#181818;stroke-width:0.5;" x1="850.92" x2="1166.7804" y1="180.3" y2="180.3"/><text fill="#000000" font-family="sans-serif" font-size="14" lengthAdjust="spacing" textLength="305.8604" x="855.92" y="197.2951">// Basisklasse f&#252;r alle kaufbaren Immobilien</text><line style="stroke:#181818;stroke-width:0.5;" x1="850.92" x2="1166.7804" y1="204.5969" y2="204.5969"/></g><!--class HousableProperty--><g class="entity" data-entity="HousableProperty" data-source-line="15" data-uid="ent0005" id="entity_HousableProperty"><rect fill="#F1F1F1" height="64.2969" rx="2.5" ry="2.5" style="stroke:#181818;stroke-width:0.5;" width="409.8584" x="884.92" y="289.6"/><ellipse cx="1023.088" cy="305.6" fill="#A9DCDF" rx="11" ry="11" style="stroke:#181818;stroke-width:1;"/><path d="M1023.1973,300.9437 L1022.0411,306.0219 L1024.3692,306.0219 L1023.1973,300.9437 Z M1021.713,298.7094 L1024.6973,298.7094 L1028.0567,311.1 L1025.6036,311.1 L1024.838,308.0375 L1021.5567,308.0375 L1020.8067,311.1 L1018.3692,311.1 L1021.713,298.7094 Z " fill="#000000"/><text fill="#000000" font-family="sans-serif" font-size="14" font-style="italic" lengthAdjust="spacing" textLength="125.0225" x="1043.588" y="310.4467">HousableProperty</text><line style="stroke:#181818;stroke-width:0.5;" x1="885.92" x2="1293.7784" y1="321.6" y2="321.6"/><text fill="#000000" font-family="sans-serif" font-size="14" lengthAdjust="spacing" textLength="397.8584" x="890.92" y="338.5951">// Basisklasse f&#252;r Immobilien, die bebaut werden k&#246;nnen</text><line style="stroke:#181818;stroke-width:0.5;" x1="885.92" x2="1293.7784" y1="345.8969" y2="345.8969"/></g><!--class Street--><g class="entity" data-entity="Street" data-source-line="19" data-uid="ent0006" id="entity_Street"><rect fill="#F1F1F1" height="64.2969" rx="2.5" ry="2.5" style="stroke:#181818;stroke-width:0.5;" width="386.0898" x="896.81" y="430.89"/><ellipse cx="1064.1811" cy="446.89" fill="#ADD1B2" rx="11" ry="11" style="stroke:#181818;stroke-width:1;"/><path d="M1067.1498,452.5306 Q1066.5717,452.8275 1065.9311,452.9681 Q1065.2905,453.1244 1064.5873,453.1244 Q1062.0873,453.1244 1060.7592,451.4838 Q1059.4467,449.8275 1059.4467,446.7025 Q1059.4467,443.5775 1060.7592,441.9213 Q1062.0873,440.265 1064.5873,440.265 Q1065.2905,440.265 1065.9311,440.4213 Q1066.5873,440.5775 1067.1498,440.8744 L1067.1498,443.5931 Q1066.5248,443.015 1065.9311,442.7494 Q1065.3373,442.4681 1064.7123,442.4681 Q1063.3686,442.4681 1062.6811,443.5463 Q1061.9936,444.6088 1061.9936,446.7025 Q1061.9936,448.7963 1062.6811,449.8744 Q1063.3686,450.9369 1064.7123,450.9369 Q1065.3373,450.9369 1065.9311,450.6713 Q1066.5248,450.39 1067.1498,449.8119 L1067.1498,452.5306 Z " fill="#000000"/><text fill="#000000" font-family="sans-serif" font-size="14" lengthAdjust="spacing" textLength="42.8477" x="1084.6811" y="451.7367">Street</text><line style="stroke:#181818;stroke-width:0.5;" x1="897.81" x2="1281.8998" y1="462.89" y2="462.89"/><text fill="#000000" font-family="sans-serif" font-size="14" lengthAdjust="spacing" textLength="374.0898" x="902.81" y="479.8851">// Repr&#228;sentiert eine Stra&#223;e, die bebaut werden kann</text><line style="stroke:#181818;stroke-width:0.5;" x1="897.81" x2="1281.8998" y1="487.1869" y2="487.1869"/></g><!--class RailRoad--><g class="entity" data-entity="RailRoad" data-source-line="23" data-uid="ent0007" id="entity_RailRoad"><rect fill="#F1F1F1" height="64.2969" rx="2.5" ry="2.5" style="stroke:#181818;stroke-width:0.5;" width="243.6494" x="1330.03" y="289.6"/><ellipse cx="1416.6823" cy="305.6" fill="#ADD1B2" rx="11" ry="11" style="stroke:#181818;stroke-width:1;"/><path d="M1419.6511,311.2406 Q1419.073,311.5375 1418.4323,311.6781 Q1417.7917,311.8344 1417.0886,311.8344 Q1414.5886,311.8344 1413.2605,310.1937 Q1411.948,308.5375 1411.948,305.4125 Q1411.948,302.2875 1413.2605,300.6312 Q1414.5886,298.975 1417.0886,298.975 Q1417.7917,298.975 1418.4323,299.1312 Q1419.0886,299.2875 1419.6511,299.5844 L1419.6511,302.3031 Q1419.0261,301.725 1418.4323,301.4594 Q1417.8386,301.1781 1417.2136,301.1781 Q1415.8698,301.1781 1415.1823,302.2562 Q1414.4948,303.3187 1414.4948,305.4125 Q1414.4948,307.5062 1415.1823,308.5844 Q1415.8698,309.6469 1417.2136,309.6469 Q1417.8386,309.6469 1418.4323,309.3812 Q1419.0261,309.1 1419.6511,308.5219 L1419.6511,311.2406 Z " fill="#000000"/><text fill="#000000" font-family="sans-serif" font-size="14" lengthAdjust="spacing" textLength="61.8447" x="1437.1823" y="310.4467">RailRoad</text><line style="stroke:#181818;stroke-width:0.5;" x1="1331.03" x2="1572.6794" y1="321.6" y2="321.6"/><text fill="#000000" font-family="sans-serif" font-size="14" lengthAdjust="spacing" textLength="231.6494" x="1336.03" y="338.5951">// Repr&#228;sentiert ein Bahnhofsfeld</text><line style="stroke:#181818;stroke-width:0.5;" x1="1331.03" x2="1572.6794" y1="345.8969" y2="345.8969"/></g><!--class Utility--><g class="entity" data-entity="Utility" data-source-line="27" data-uid="ent0008" id="entity_Utility"><rect fill="#F1F1F1" height="64.2969" rx="2.5" ry="2.5" style="stroke:#181818;stroke-width:0.5;" width="335.2031" x="1608.25" y="289.6"/><ellipse cx="1751.0117" cy="305.6" fill="#ADD1B2" rx="11" ry="11" style="stroke:#181818;stroke-width:1;"/><path d="M1753.9805,311.2406 Q1753.4023,311.5375 1752.7617,311.6781 Q1752.1211,311.8344 1751.418,311.8344 Q1748.918,311.8344 1747.5898,310.1937 Q1746.2773,308.5375 1746.2773,305.4125 Q1746.2773,302.2875 1747.5898,300.6312 Q1748.918,298.975 1751.418,298.975 Q1752.1211,298.975 1752.7617,299.1312 Q1753.418,299.2875 1753.9805,299.5844 L1753.9805,302.3031 Q1753.3555,301.725 1752.7617,301.4594 Q1752.168,301.1781 1751.543,301.1781 Q1750.1992,301.1781 1749.5117,302.2562 Q1748.8242,303.3187 1748.8242,305.4125 Q1748.8242,307.5062 1749.5117,308.5844 Q1750.1992,309.6469 1751.543,309.6469 Q1752.168,309.6469 1752.7617,309.3812 Q1753.3555,309.1 1753.9805,308.5219 L1753.9805,311.2406 Z " fill="#000000"/><text fill="#000000" font-family="sans-serif" font-size="14" lengthAdjust="spacing" textLength="41.1797" x="1771.5117" y="310.4467">Utility</text><line style="stroke:#181818;stroke-width:0.5;" x1="1609.25" x2="1942.4531" y1="321.6" y2="321.6"/><text fill="#000000" font-family="sans-serif" font-size="14" lengthAdjust="spacing" textLength="323.2031" x="1614.25" y="338.5951">// Repr&#228;sentiert ein Versorgungsunternehmen</text><line style="stroke:#181818;stroke-width:0.5;" x1="1609.25" x2="1942.4531" y1="345.8969" y2="345.8969"/></g><!--class Group--><g class="entity" data-entity="Group" data-source-line="31" data-uid="ent0009" id="entity_Group"><rect fill="#F1F1F1" height="64.2969" rx="2.5" ry="2.5" style="stroke:#181818;stroke-width:0.5;" width="328.791" x="440.46" y="7"/><ellipse cx="579.1407" cy="23" fill="#ADD1B2" rx="11" ry="11" style="stroke:#181818;stroke-width:1;"/><path d="M582.1094,28.6406 Q581.5313,28.9375 580.8907,29.0781 Q580.25,29.2344 579.5469,29.2344 Q577.0469,29.2344 575.7188,27.5938 Q574.4063,25.9375 574.4063,22.8125 Q574.4063,19.6875 575.7188,18.0313 Q577.0469,16.375 579.5469,16.375 Q580.25,16.375 580.8907,16.5313 Q581.5469,16.6875 582.1094,16.9844 L582.1094,19.7031 Q581.4844,19.125 580.8907,18.8594 Q580.2969,18.5781 579.6719,18.5781 Q578.3282,18.5781 577.6407,19.6563 Q576.9532,20.7188 576.9532,22.8125 Q576.9532,24.9063 577.6407,25.9844 Q578.3282,27.0469 579.6719,27.0469 Q580.2969,27.0469 580.8907,26.7813 Q581.4844,26.5 582.1094,25.9219 L582.1094,28.6406 Z " fill="#000000"/><text fill="#000000" font-family="sans-serif" font-size="14" lengthAdjust="spacing" textLength="42.9297" x="599.6407" y="27.8467">Group</text><line style="stroke:#181818;stroke-width:0.5;" x1="441.46" x2="768.251" y1="39" y2="39"/><text fill="#000000" font-family="sans-serif" font-size="14" lengthAdjust="spacing" textLength="316.791" x="446.46" y="55.9951">// Implementiert eine Gruppe von Immobilien</text><line style="stroke:#181818;stroke-width:0.5;" x1="441.46" x2="768.251" y1="63.2969" y2="63.2969"/></g><!--class Player--><g class="entity" data-entity="Player" data-source-line="44" data-uid="ent0018" id="entity_Player"><rect fill="#F1F1F1" height="48" rx="2.5" ry="2.5" style="stroke:#181818;stroke-width:0.5;" width="75.5654" x="616.07" y="439.04"/><ellipse cx="631.07" cy="455.04" fill="#ADD1B2" rx="11" ry="11" style="stroke:#181818;stroke-width:1;"/><path d="M634.0388,460.6806 Q633.4606,460.9775 632.82,461.1181 Q632.1794,461.2744 631.4763,461.2744 Q628.9763,461.2744 627.6481,459.6338 Q626.3356,457.9775 626.3356,454.8525 Q626.3356,451.7275 627.6481,450.0713 Q628.9763,448.415 631.4763,448.415 Q632.1794,448.415 632.82,448.5713 Q633.4763,448.7275 634.0388,449.0244 L634.0388,451.7431 Q633.4138,451.165 632.82,450.8994 Q632.2263,450.6181 631.6013,450.6181 Q630.2575,450.6181 629.57,451.6963 Q628.8825,452.7588 628.8825,454.8525 Q628.8825,456.9463 629.57,458.0244 Q630.2575,459.0869 631.6013,459.0869 Q632.2263,459.0869 632.82,458.8213 Q633.4138,458.54 634.0388,457.9619 L634.0388,460.6806 Z " fill="#000000"/><text fill="#000000" font-family="sans-serif" font-size="14" lengthAdjust="spacing" textLength="43.5654" x="645.07" y="459.8867">Player</text><line style="stroke:#181818;stroke-width:0.5;" x1="617.07" x2="690.6354" y1="471.04" y2="471.04"/><line style="stroke:#181818;stroke-width:0.5;" x1="617.07" x2="690.6354" y1="479.04" y2="479.04"/></g><!--reverse link Property to HousableProperty--><g class="link" data-entity-1="Property" data-entity-2="HousableProperty" data-source-line="36" data-uid="lnk10" id="link_Property_HousableProperty"><path codeLine="36" d="M1036.2823,228.6182 C1049.5423,251.4082 1058.3,266.49 1071.54,289.26" fill="none" id="Property-backto-HousableProperty" style="stroke:#181818;stroke-width:1;"/><polygon fill="none" points="1027.23,213.06,1031.0962,231.6356,1041.4683,225.6007,1027.23,213.06" style="stroke:#181818;stroke-width:1;"/></g><!--reverse link Property to RailRoad--><g class="link" data-entity-1="Property" data-entity-2="RailRoad" data-source-line="37" data-uid="lnk11" id="link_Property_RailRoad"><path codeLine="37" d="M1126.5515,218.458 C1198.9215,241.208 1278.97,266.39 1351.34,289.14" fill="none" id="Property-backto-RailRoad" style="stroke:#181818;stroke-width:1;"/><polygon fill="none" points="1109.38,213.06,1124.7522,224.1818,1128.3509,212.7341,1109.38,213.06" style="stroke:#181818;stroke-width:1;"/></g><!--reverse link Property to Utility--><g class="link" data-entity-1="Property" data-entity-2="Utility" data-source-line="38" data-uid="lnk12" id="link_Property_Utility"><path codeLine="38" d="M1185.9502,213.607 C1314.5502,236.967 1477.24,266.51 1608.04,290.27" fill="none" id="Property-backto-Utility" style="stroke:#181818;stroke-width:1;"/><polygon fill="none" points="1168.24,210.39,1184.8778,219.5104,1187.0225,207.7036,1168.24,210.39" style="stroke:#181818;stroke-width:1;"/></g><!--reverse link HousableProperty to Street--><g class="link" data-entity-1="HousableProperty" data-entity-2="Street" data-source-line="39" data-uid="lnk13" id="link_HousableProperty_Street"><path codeLine="39" d="M1089.85,372.35 C1089.85,395.15 1089.85,407.79 1089.85,430.56" fill="none" id="HousableProperty-backto-Street" style="stroke:#181818;stroke-width:1;"/><polygon fill="none" points="1089.85,354.35,1083.85,372.35,1095.85,372.35,1089.85,354.35" style="stroke:#181818;stroke-width:1;"/></g><!--link Property to Ownable--><g class="link" data-entity-1="Property" data-entity-2="Ownable" data-source-line="40" data-uid="lnk14" id="link_Property_Ownable"><path codeLine="40" d="M928.3,213.06 C870.3,235.81 809.147,259.8172 751.147,282.5672" fill="none" id="Property-to-Ownable" style="stroke:#181818;stroke-width:1;stroke-dasharray:7.0,7.0;"/><polygon fill="none" points="734.39,289.14,753.338,288.1529,748.9561,276.9815,734.39,289.14" style="stroke:#181818;stroke-width:1;"/><text fill="#000000" font-family="sans-serif" font-size="13" lengthAdjust="spacing" textLength="76.9082" x="853.85" y="255.6669">implements</text></g><!--reverse link Property to PropertyGroup--><g class="link" data-entity-1="Property" data-entity-2="PropertyGroup" data-source-line="41" data-uid="lnk15" id="link_Property_PropertyGroup"><path codeLine="41" d="M838.8033,215.404 C763.5633,230.124 684.07,245.21 601.85,259.6 C543.98,269.72 481.1,279.98 423.19,289.12" fill="none" id="Property-backto-PropertyGroup" style="stroke:#181818;stroke-width:1;"/><polygon fill="#181818" points="850.58,213.1,843.9236,210.3264,838.8033,215.404,845.4596,218.1776,850.58,213.1" style="stroke:#181818;stroke-width:1;"/><text fill="#000000" font-family="sans-serif" font-size="13" lengthAdjust="spacing" textLength="22.9785" x="692.85" y="255.6669">has</text><text fill="#000000" font-family="sans-serif" font-size="13" lengthAdjust="spacing" textLength="8.271" x="833.7133" y="211.546">1</text><text fill="#000000" font-family="sans-serif" font-size="13" lengthAdjust="spacing" textLength="8.271" x="430.845" y="283.1196">1</text></g><!--link Group to PropertyGroup--><g class="link" data-entity-1="Group" data-entity-2="PropertyGroup" data-source-line="42" data-uid="lnk16" id="link_Group_PropertyGroup"><path codeLine="42" d="M560.87,71.79 C485.77,125.83 348.2706,224.7467 273.2806,278.7067" fill="none" id="Group-to-PropertyGroup" style="stroke:#181818;stroke-width:1;stroke-dasharray:7.0,7.0;"/><polygon fill="none" points="258.67,289.22,276.7851,283.5769,269.7762,273.8365,258.67,289.22" style="stroke:#181818;stroke-width:1;"/><text fill="#000000" font-family="sans-serif" font-size="13" lengthAdjust="spacing" textLength="76.9082" x="449.85" y="185.0169">implements</text></g><!--reverse link Group to Property--><g class="link" data-entity-1="Group" data-entity-2="Property" data-source-line="43" data-uid="lnk17" id="link_Group_Property"><path codeLine="43" d="M707.8744,75.6721 C773.8744,98.4321 851.19,125.09 917.19,147.84" fill="none" id="Group-backto-Property" style="stroke:#181818;stroke-width:1;"/><polygon fill="#181818" points="696.53,71.76,700.8982,77.4975,707.8744,75.6721,703.5062,69.9346,696.53,71.76" style="stroke:#181818;stroke-width:1;"/><text fill="#000000" font-family="sans-serif" font-size="13" lengthAdjust="spacing" textLength="55.0278" x="832.85" y="114.3669">contains</text><text fill="#000000" font-family="sans-serif" font-size="13" lengthAdjust="spacing" textLength="8.271" x="705.2688" y="91.4858">1</text><text fill="#000000" font-family="sans-serif" font-size="13" lengthAdjust="spacing" textLength="6.5" x="893.1931" y="137.2739">*</text></g><!--reverse link Ownable to Player--><g class="link" data-entity-1="Ownable" data-entity-2="Player" data-source-line="44" data-uid="lnk19" id="link_Ownable_Player"><path codeLine="44" d="M653.85,366.35 C653.85,392.04 653.85,415.68 653.85,438.8" fill="none" id="Ownable-backto-Player" style="stroke:#181818;stroke-width:1;"/><polygon fill="#181818" points="653.85,354.35,649.85,360.35,653.85,366.35,657.85,360.35,653.85,354.35" style="stroke:#181818;stroke-width:1;"/><text fill="#000000" font-family="sans-serif" font-size="13" lengthAdjust="spacing" textLength="69.418" x="654.85" y="396.9569">references</text><text fill="#000000" font-family="sans-serif" font-size="13" lengthAdjust="spacing" textLength="8.271" x="645.1121" y="374.0739">1</text><text fill="#000000" font-family="sans-serif" font-size="13" lengthAdjust="spacing" textLength="8.271" x="644.9074" y="428.1465">1</text></g><!--SRC=[ZPEvJiD048PxFyM81WbnY3P251o2LA0WwCVEE5wodhLsraHSpqB3Cr3H-SMOs8djE0ZXndlDD_y_ixiBOmxaKqn88hCUmis2CRO4hn7eTtG45vGQDkG3J0t1fPaHIv9X6eY139F07CiqHg_pc_YHva6YzwX7lFMkqF3dA-_AekC-a5-W3HHg2bpviYW8Nah1F2UUKLPzUKtcOPpdBZRM42-vkt1kKKGrOop1On8WMIwqQReCPoX6vlLfIAjl3sZLMATs4pp0NJjLeeNu1xRZxDSrYYd6Ci22_5IppAilvYP5GxuBdjHrovjGuQjF8GvrbUjgw1ciFkXN7d8FDa5Z9mwdV-5KSSQPIoKbE-r2xuDgxXlx9LAR9CxFIfv9kMmeKvRtlGnwEiuBI_c6arLVdnnlDN925eDnB9af96eBVV9sSB1L_i7sslPWUMKfscfUlTiKlWivF7mxRU_x2CnQV4_Bpl4Ex6deyhzvZqUGeKJDk0ODjtkuPgbbxNKiFPSu3cXOehMIZPmMd_K9ZC1JIdfdzQt-0000]--></g></svg>