<svg xmlns="http://www.w3.org/2000/svg" xmlns:xlink="http://www.w3.org/1999/xlink" contentStyleType="text/css" data-diagram-type="CLASS" height="502px" preserveAspectRatio="none" style="width:1164px;height:502px;background:#FFFFFF;" version="1.1" viewBox="0 0 1164 502" width="1164px" zoomAndPan="magnify"><defs/><g><!--class Board--><g class="entity" data-entity="Board" data-source-line="2" data-uid="ent0002" id="entity_Board"><rect fill="#F1F1F1" height="64.2969" rx="2.5" ry="2.5" style="stroke:#181818;stroke-width:0.5;" width="497.6797" x="7" y="289.6"/><ellipse cx="230.894" cy="305.6" fill="#ADD1B2" rx="11" ry="11" style="stroke:#181818;stroke-width:1;"/><path d="M233.8628,311.2406 Q233.2847,311.5375 232.644,311.6781 Q232.0034,311.8344 231.3003,311.8344 Q228.8003,311.8344 227.4722,310.1937 Q226.1597,308.5375 226.1597,305.4125 Q226.1597,302.2875 227.4722,300.6312 Q228.8003,298.975 231.3003,298.975 Q232.0034,298.975 232.644,299.1312 Q233.3003,299.2875 233.8628,299.5844 L233.8628,302.3031 Q233.2378,301.725 232.644,301.4594 Q232.0503,301.1781 231.4253,301.1781 Q230.0815,301.1781 229.394,302.2562 Q228.7065,303.3187 228.7065,305.4125 Q228.7065,307.5062 229.394,308.5844 Q230.0815,309.6469 231.4253,309.6469 Q232.0503,309.6469 232.644,309.3812 Q233.2378,309.1 233.8628,308.5219 L233.8628,311.2406 Z " fill="#000000"/><text fill="#000000" font-family="sans-serif" font-size="14" lengthAdjust="spacing" textLength="41.3916" x="251.394" y="310.4467">Board</text><line style="stroke:#181818;stroke-width:0.5;" x1="8" x2="503.6797" y1="321.6" y2="321.6"/><text fill="#000000" font-family="sans-serif" font-size="14" lengthAdjust="spacing" textLength="485.6797" x="13" y="338.5951">// Verwaltet alle Spielfelder und erm&#246;glicht die Bewegung der Spieler</text><line style="stroke:#181818;stroke-width:0.5;" x1="8" x2="503.6797" y1="345.8969" y2="345.8969"/></g><!--class BoardFactory--><g class="entity" data-entity="BoardFactory" data-source-line="6" data-uid="ent0003" id="entity_BoardFactory"><rect fill="#F1F1F1" height="64.2969" rx="2.5" ry="2.5" style="stroke:#181818;stroke-width:0.5;" width="286.1758" x="95.75" y="148.3"/><ellipse cx="187.6797" cy="164.3" fill="#ADD1B2" rx="11" ry="11" style="stroke:#181818;stroke-width:1;"/><path d="M190.6484,169.9406 Q190.0703,170.2375 189.4297,170.3781 Q188.7891,170.5344 188.0859,170.5344 Q185.5859,170.5344 184.2578,168.8938 Q182.9453,167.2375 182.9453,164.1125 Q182.9453,160.9875 184.2578,159.3313 Q185.5859,157.675 188.0859,157.675 Q188.7891,157.675 189.4297,157.8313 Q190.0859,157.9875 190.6484,158.2844 L190.6484,161.0031 Q190.0234,160.425 189.4297,160.1594 Q188.8359,159.8781 188.2109,159.8781 Q186.8672,159.8781 186.1797,160.9563 Q185.4922,162.0188 185.4922,164.1125 Q185.4922,166.2063 186.1797,167.2844 Q186.8672,168.3469 188.2109,168.3469 Q188.8359,168.3469 189.4297,168.0813 Q190.0234,167.8 190.6484,167.2219 L190.6484,169.9406 Z " fill="#000000"/><text fill="#000000" font-family="sans-serif" font-size="14" lengthAdjust="spacing" textLength="93.8164" x="208.1797" y="169.1467">BoardFactory</text><line style="stroke:#181818;stroke-width:0.5;" x1="96.75" x2="380.9258" y1="180.3" y2="180.3"/><text fill="#000000" font-family="sans-serif" font-size="14" lengthAdjust="spacing" textLength="274.1758" x="101.75" y="197.2951">// Erstellt und initialisiert das Spielbrett</text><line style="stroke:#181818;stroke-width:0.5;" x1="96.75" x2="380.9258" y1="204.5969" y2="204.5969"/></g><!--class Game--><g class="entity" data-entity="Game" data-source-line="10" data-uid="ent0004" id="entity_Game"><rect fill="#F1F1F1" height="64.2969" rx="2.5" ry="2.5" style="stroke:#181818;stroke-width:0.5;" width="346.6875" x="416.5" y="148.3"/><ellipse cx="564.7544" cy="164.3" fill="#ADD1B2" rx="11" ry="11" style="stroke:#181818;stroke-width:1;"/><path d="M567.7231,169.9406 Q567.145,170.2375 566.5044,170.3781 Q565.8638,170.5344 565.1606,170.5344 Q562.6606,170.5344 561.3325,168.8938 Q560.02,167.2375 560.02,164.1125 Q560.02,160.9875 561.3325,159.3313 Q562.6606,157.675 565.1606,157.675 Q565.8638,157.675 566.5044,157.8313 Q567.1606,157.9875 567.7231,158.2844 L567.7231,161.0031 Q567.0981,160.425 566.5044,160.1594 Q565.9106,159.8781 565.2856,159.8781 Q563.9419,159.8781 563.2544,160.9563 Q562.5669,162.0188 562.5669,164.1125 Q562.5669,166.2063 563.2544,167.2844 Q563.9419,168.3469 565.2856,168.3469 Q565.9106,168.3469 566.5044,168.0813 Q567.0981,167.8 567.7231,167.2219 L567.7231,169.9406 Z " fill="#000000"/><text fill="#000000" font-family="sans-serif" font-size="14" lengthAdjust="spacing" textLength="41.6787" x="585.2544" y="169.1467">Game</text><line style="stroke:#181818;stroke-width:0.5;" x1="417.5" x2="762.1875" y1="180.3" y2="180.3"/><text fill="#000000" font-family="sans-serif" font-size="14" lengthAdjust="spacing" textLength="334.6875" x="422.5" y="197.2951">// Verwaltet den Spielablauf und die Spielregeln</text><line style="stroke:#181818;stroke-width:0.5;" x1="417.5" x2="762.1875" y1="204.5969" y2="204.5969"/></g><!--class GameFactory--><g class="entity" data-entity="GameFactory" data-source-line="14" data-uid="ent0005" id="entity_GameFactory"><rect fill="#F1F1F1" height="64.2969" rx="2.5" ry="2.5" style="stroke:#181818;stroke-width:0.5;" width="295.2744" x="442.2" y="7"/><ellipse cx="538.5354" cy="23" fill="#ADD1B2" rx="11" ry="11" style="stroke:#181818;stroke-width:1;"/><path d="M541.5042,28.6406 Q540.9261,28.9375 540.2854,29.0781 Q539.6448,29.2344 538.9417,29.2344 Q536.4417,29.2344 535.1136,27.5938 Q533.8011,25.9375 533.8011,22.8125 Q533.8011,19.6875 535.1136,18.0313 Q536.4417,16.375 538.9417,16.375 Q539.6448,16.375 540.2854,16.5313 Q540.9417,16.6875 541.5042,16.9844 L541.5042,19.7031 Q540.8792,19.125 540.2854,18.8594 Q539.6917,18.5781 539.0667,18.5781 Q537.7229,18.5781 537.0354,19.6563 Q536.3479,20.7188 536.3479,22.8125 Q536.3479,24.9063 537.0354,25.9844 Q537.7229,27.0469 539.0667,27.0469 Q539.6917,27.0469 540.2854,26.7813 Q540.8792,26.5 541.5042,25.9219 L541.5042,28.6406 Z " fill="#000000"/><text fill="#000000" font-family="sans-serif" font-size="14" lengthAdjust="spacing" textLength="94.1035" x="559.0354" y="27.8467">GameFactory</text><line style="stroke:#181818;stroke-width:0.5;" x1="443.2" x2="736.4744" y1="39" y2="39"/><text fill="#000000" font-family="sans-serif" font-size="14" lengthAdjust="spacing" textLength="283.2744" x="448.2" y="55.9951">// Erstellt und initialisiert ein neues Spiel</text><line style="stroke:#181818;stroke-width:0.5;" x1="443.2" x2="736.4744" y1="63.2969" y2="63.2969"/></g><!--class Player--><g class="entity" data-entity="Player" data-source-line="18" data-uid="ent0006" id="entity_Player"><rect fill="#F1F1F1" height="64.2969" rx="2.5" ry="2.5" style="stroke:#181818;stroke-width:0.5;" width="278.3555" x="748.66" y="289.6"/><ellipse cx="861.805" cy="305.6" fill="#ADD1B2" rx="11" ry="11" style="stroke:#181818;stroke-width:1;"/><path d="M864.7738,311.2406 Q864.1956,311.5375 863.555,311.6781 Q862.9144,311.8344 862.2113,311.8344 Q859.7113,311.8344 858.3831,310.1937 Q857.0706,308.5375 857.0706,305.4125 Q857.0706,302.2875 858.3831,300.6312 Q859.7113,298.975 862.2113,298.975 Q862.9144,298.975 863.555,299.1312 Q864.2113,299.2875 864.7738,299.5844 L864.7738,302.3031 Q864.1488,301.725 863.555,301.4594 Q862.9613,301.1781 862.3363,301.1781 Q860.9925,301.1781 860.305,302.2562 Q859.6175,303.3187 859.6175,305.4125 Q859.6175,307.5062 860.305,308.5844 Q860.9925,309.6469 862.3363,309.6469 Q862.9613,309.6469 863.555,309.3812 Q864.1488,309.1 864.7738,308.5219 L864.7738,311.2406 Z " fill="#000000"/><text fill="#000000" font-family="sans-serif" font-size="14" lengthAdjust="spacing" textLength="43.5654" x="882.305" y="310.4467">Player</text><line style="stroke:#181818;stroke-width:0.5;" x1="749.66" x2="1026.0155" y1="321.6" y2="321.6"/><text fill="#000000" font-family="sans-serif" font-size="14" lengthAdjust="spacing" textLength="266.3555" x="754.66" y="338.5951">// Repr&#228;sentiert einen Spieler im Spiel</text><line style="stroke:#181818;stroke-width:0.5;" x1="749.66" x2="1026.0155" y1="345.8969" y2="345.8969"/></g><!--class PlayerFactory--><g class="entity" data-entity="PlayerFactory" data-source-line="22" data-uid="ent0007" id="entity_PlayerFactory"><rect fill="#F1F1F1" height="64.2969" rx="2.5" ry="2.5" style="stroke:#181818;stroke-width:0.5;" width="359.3682" x="798.16" y="148.3"/><ellipse cx="925.599" cy="164.3" fill="#ADD1B2" rx="11" ry="11" style="stroke:#181818;stroke-width:1;"/><path d="M928.5677,169.9406 Q927.9896,170.2375 927.349,170.3781 Q926.7083,170.5344 926.0052,170.5344 Q923.5052,170.5344 922.1771,168.8938 Q920.8646,167.2375 920.8646,164.1125 Q920.8646,160.9875 922.1771,159.3313 Q923.5052,157.675 926.0052,157.675 Q926.7083,157.675 927.349,157.8313 Q928.0052,157.9875 928.5677,158.2844 L928.5677,161.0031 Q927.9427,160.425 927.349,160.1594 Q926.7552,159.8781 926.1302,159.8781 Q924.7865,159.8781 924.099,160.9563 Q923.4115,162.0188 923.4115,164.1125 Q923.4115,166.2063 924.099,167.2844 Q924.7865,168.3469 926.1302,168.3469 Q926.7552,168.3469 927.349,168.0813 Q927.9427,167.8 928.5677,167.2219 L928.5677,169.9406 Z " fill="#000000"/><text fill="#000000" font-family="sans-serif" font-size="14" lengthAdjust="spacing" textLength="95.9902" x="946.099" y="169.1467">PlayerFactory</text><line style="stroke:#181818;stroke-width:0.5;" x1="799.16" x2="1156.5282" y1="180.3" y2="180.3"/><text fill="#000000" font-family="sans-serif" font-size="14" lengthAdjust="spacing" textLength="347.3682" x="804.16" y="197.2951">// Erstellt neue Spieler mit initialen Eigenschaften</text><line style="stroke:#181818;stroke-width:0.5;" x1="799.16" x2="1156.5282" y1="204.5969" y2="204.5969"/></g><!--class Token--><g class="entity" data-entity="Token" data-source-line="26" data-uid="ent0008" id="entity_Token"><rect fill="#F1F1F1" height="64.2969" rx="2.5" ry="2.5" style="stroke:#181818;stroke-width:0.5;" width="320.2666" x="727.71" y="430.89"/><ellipse cx="862.2378" cy="446.89" fill="#ADD1B2" rx="11" ry="11" style="stroke:#181818;stroke-width:1;"/><path d="M865.2066,452.5306 Q864.6285,452.8275 863.9878,452.9681 Q863.3472,453.1244 862.6441,453.1244 Q860.1441,453.1244 858.816,451.4838 Q857.5035,449.8275 857.5035,446.7025 Q857.5035,443.5775 858.816,441.9213 Q860.1441,440.265 862.6441,440.265 Q863.3472,440.265 863.9878,440.4213 Q864.6441,440.5775 865.2066,440.8744 L865.2066,443.5931 Q864.5816,443.015 863.9878,442.7494 Q863.3941,442.4681 862.7691,442.4681 Q861.4253,442.4681 860.7378,443.5463 Q860.0503,444.6088 860.0503,446.7025 Q860.0503,448.7963 860.7378,449.8744 Q861.4253,450.9369 862.7691,450.9369 Q863.3941,450.9369 863.9878,450.6713 Q864.5816,450.39 865.2066,449.8119 L865.2066,452.5306 Z " fill="#000000"/><text fill="#000000" font-family="sans-serif" font-size="14" lengthAdjust="spacing" textLength="42.7109" x="882.7378" y="451.7367">Token</text><line style="stroke:#181818;stroke-width:0.5;" x1="728.71" x2="1046.9766" y1="462.89" y2="462.89"/><text fill="#000000" font-family="sans-serif" font-size="14" lengthAdjust="spacing" textLength="308.2666" x="733.71" y="479.8851">// Repr&#228;sentiert die Spielfigur eines Spielers</text><line style="stroke:#181818;stroke-width:0.5;" x1="728.71" x2="1046.9766" y1="487.1869" y2="487.1869"/></g><!--class Dice--><g class="entity" data-entity="Dice" data-source-line="30" data-uid="ent0009" id="entity_Dice"><rect fill="#F1F1F1" height="64.2969" rx="2.5" ry="2.5" style="stroke:#181818;stroke-width:0.5;" width="290.5918" x="772.54" y="7"/><ellipse cx="898.0957" cy="23" fill="#ADD1B2" rx="11" ry="11" style="stroke:#181818;stroke-width:1;"/><path d="M901.0644,28.6406 Q900.4863,28.9375 899.8457,29.0781 Q899.205,29.2344 898.5019,29.2344 Q896.0019,29.2344 894.6738,27.5938 Q893.3613,25.9375 893.3613,22.8125 Q893.3613,19.6875 894.6738,18.0313 Q896.0019,16.375 898.5019,16.375 Q899.205,16.375 899.8457,16.5313 Q900.5019,16.6875 901.0644,16.9844 L901.0644,19.7031 Q900.4394,19.125 899.8457,18.8594 Q899.2519,18.5781 898.6269,18.5781 Q897.2832,18.5781 896.5957,19.6563 Q895.9082,20.7188 895.9082,22.8125 Q895.9082,24.9063 896.5957,25.9844 Q897.2832,27.0469 898.6269,27.0469 Q899.2519,27.0469 899.8457,26.7813 Q900.4394,26.5 901.0644,25.9219 L901.0644,28.6406 Z " fill="#000000"/><text fill="#000000" font-family="sans-serif" font-size="14" lengthAdjust="spacing" textLength="30.9805" x="918.5957" y="27.8467">Dice</text><line style="stroke:#181818;stroke-width:0.5;" x1="773.54" x2="1062.1318" y1="39" y2="39"/><text fill="#000000" font-family="sans-serif" font-size="14" lengthAdjust="spacing" textLength="278.5918" x="778.54" y="55.9951">// Verwaltet die W&#252;rfel und W&#252;rfelw&#252;rfe</text><line style="stroke:#181818;stroke-width:0.5;" x1="773.54" x2="1062.1318" y1="63.2969" y2="63.2969"/></g><!--class Bank--><g class="entity" data-entity="Bank" data-source-line="37" data-uid="ent0012" id="entity_Bank"><rect fill="#F1F1F1" height="48" rx="2.5" ry="2.5" style="stroke:#181818;stroke-width:0.5;" width="67.1641" x="556.26" y="297.74"/><ellipse cx="571.26" cy="313.74" fill="#ADD1B2" rx="11" ry="11" style="stroke:#181818;stroke-width:1;"/><path d="M574.2288,319.3806 Q573.6506,319.6775 573.01,319.8181 Q572.3694,319.9744 571.6663,319.9744 Q569.1663,319.9744 567.8381,318.3338 Q566.5256,316.6775 566.5256,313.5525 Q566.5256,310.4275 567.8381,308.7713 Q569.1663,307.115 571.6663,307.115 Q572.3694,307.115 573.01,307.2713 Q573.6663,307.4275 574.2288,307.7244 L574.2288,310.4431 Q573.6038,309.865 573.01,309.5994 Q572.4163,309.3181 571.7913,309.3181 Q570.4475,309.3181 569.76,310.3963 Q569.0725,311.4588 569.0725,313.5525 Q569.0725,315.6463 569.76,316.7244 Q570.4475,317.7869 571.7913,317.7869 Q572.4163,317.7869 573.01,317.5213 Q573.6038,317.24 574.2288,316.6619 L574.2288,319.3806 Z " fill="#000000"/><text fill="#000000" font-family="sans-serif" font-size="14" lengthAdjust="spacing" textLength="35.1641" x="585.26" y="318.5867">Bank</text><line style="stroke:#181818;stroke-width:0.5;" x1="557.26" x2="622.4241" y1="329.74" y2="329.74"/><line style="stroke:#181818;stroke-width:0.5;" x1="557.26" x2="622.4241" y1="337.74" y2="337.74"/></g><!--reverse link Game to Board--><g class="link" data-entity-1="Game" data-entity-2="Board" data-source-line="35" data-uid="lnk10" id="link_Game_Board"><path codeLine="35" d="M502.9743,217.6783 C448.4143,240.4283 386.18,266.39 331.62,289.14" fill="none" id="Game-backto-Board" style="stroke:#181818;stroke-width:1;"/><polygon fill="#181818" points="514.05,213.06,506.9727,211.6772,502.9743,217.6783,510.0516,219.061,514.05,213.06" style="stroke:#181818;stroke-width:1;"/><text fill="#000000" font-family="sans-serif" font-size="13" lengthAdjust="spacing" textLength="22.9785" x="442.84" y="255.6669">has</text><text fill="#000000" font-family="sans-serif" font-size="13" lengthAdjust="spacing" textLength="8.271" x="490.8651" y="232.7858">1</text><text fill="#000000" font-family="sans-serif" font-size="13" lengthAdjust="spacing" textLength="8.271" x="337.3289" y="278.5739">1</text></g><!--reverse link Game to Player--><g class="link" data-entity-1="Game" data-entity-2="Player" data-source-line="36" data-uid="lnk11" id="link_Game_Player"><path codeLine="36" d="M668.3314,218.1406 C717.0114,240.8906 771.55,266.39 820.23,289.14" fill="none" id="Game-backto-Player" style="stroke:#181818;stroke-width:1;"/><polygon fill="#181818" points="657.46,213.06,661.2022,219.2241,668.3314,218.1406,664.5892,211.9765,657.46,213.06" style="stroke:#181818;stroke-width:1;"/><text fill="#000000" font-family="sans-serif" font-size="13" lengthAdjust="spacing" textLength="22.9785" x="756.84" y="255.6669">has</text><text fill="#000000" font-family="sans-serif" font-size="13" lengthAdjust="spacing" textLength="8.271" x="661.6127" y="232.7858">1</text><text fill="#000000" font-family="sans-serif" font-size="13" lengthAdjust="spacing" textLength="6.5" x="800.8181" y="278.5739">*</text></g><!--reverse link Game to Bank--><g class="link" data-entity-1="Game" data-entity-2="Bank" data-source-line="37" data-uid="lnk13" id="link_Game_Bank"><path codeLine="37" d="M589.84,225.06 C589.84,250.74 589.84,274.39 589.84,297.51" fill="none" id="Game-backto-Bank" style="stroke:#181818;stroke-width:1;"/><polygon fill="#181818" points="589.84,213.06,585.84,219.06,589.84,225.06,593.84,219.06,589.84,213.06" style="stroke:#181818;stroke-width:1;"/><text fill="#000000" font-family="sans-serif" font-size="13" lengthAdjust="spacing" textLength="22.9785" x="590.84" y="255.6669">has</text><text fill="#000000" font-family="sans-serif" font-size="13" lengthAdjust="spacing" textLength="8.271" x="581.1026" y="232.7858">1</text><text fill="#000000" font-family="sans-serif" font-size="13" lengthAdjust="spacing" textLength="8.271" x="580.8975" y="286.8589">1</text></g><!--link GameFactory to Game--><g class="link" data-entity-1="GameFactory" data-entity-2="Game" data-source-line="38" data-uid="lnk14" id="link_GameFactory_Game"><path codeLine="38" d="M589.84,71.76 C589.84,94.56 589.84,119.2 589.84,141.96" fill="none" id="GameFactory-to-Game" style="stroke:#181818;stroke-width:1;stroke-dasharray:7.0,7.0;"/><polygon fill="#181818" points="589.84,147.96,593.84,138.96,589.84,142.96,585.84,138.96,589.84,147.96" style="stroke:#181818;stroke-width:1;"/><text fill="#000000" font-family="sans-serif" font-size="13" lengthAdjust="spacing" textLength="48.3247" x="590.84" y="114.3669">creates</text></g><!--link BoardFactory to Board--><g class="link" data-entity-1="BoardFactory" data-entity-2="Board" data-source-line="39" data-uid="lnk15" id="link_BoardFactory_Board"><path codeLine="39" d="M242.7,213.06 C245.48,235.85 248.4929,260.5342 251.2729,283.3042" fill="none" id="BoardFactory-to-Board" style="stroke:#181818;stroke-width:1;stroke-dasharray:7.0,7.0;"/><polygon fill="#181818" points="252,289.26,254.8798,279.8416,251.394,284.2969,246.9388,280.8111,252,289.26" style="stroke:#181818;stroke-width:1;"/><text fill="#000000" font-family="sans-serif" font-size="13" lengthAdjust="spacing" textLength="48.3247" x="249.84" y="255.6669">creates</text></g><!--link PlayerFactory to Player--><g class="link" data-entity-1="PlayerFactory" data-entity-2="Player" data-source-line="40" data-uid="lnk16" id="link_PlayerFactory_Player"><path codeLine="40" d="M957.42,213.06 C942.69,235.85 926.1458,261.4502 911.4358,284.2202" fill="none" id="PlayerFactory-to-Player" style="stroke:#181818;stroke-width:1;stroke-dasharray:7.0,7.0;"/><polygon fill="#181818" points="908.18,289.26,916.4236,283.8709,910.8932,285.0602,909.7039,279.5298,908.18,289.26" style="stroke:#181818;stroke-width:1;"/><text fill="#000000" font-family="sans-serif" font-size="13" lengthAdjust="spacing" textLength="48.3247" x="938.84" y="255.6669">creates</text></g><!--reverse link Player to Token--><g class="link" data-entity-1="Player" data-entity-2="Token" data-source-line="41" data-uid="lnk17" id="link_Player_Token"><path codeLine="41" d="M887.84,366.35 C887.84,389.15 887.84,407.79 887.84,430.56" fill="none" id="Player-backto-Token" style="stroke:#181818;stroke-width:1;"/><polygon fill="#181818" points="887.84,354.35,883.84,360.35,887.84,366.35,891.84,360.35,887.84,354.35" style="stroke:#181818;stroke-width:1;"/><text fill="#000000" font-family="sans-serif" font-size="13" lengthAdjust="spacing" textLength="22.9785" x="888.84" y="396.9569">has</text><text fill="#000000" font-family="sans-serif" font-size="13" lengthAdjust="spacing" textLength="8.271" x="879.1038" y="374.0739">1</text><text fill="#000000" font-family="sans-serif" font-size="13" lengthAdjust="spacing" textLength="8.271" x="879.0785" y="419.7692">1</text></g><!--SRC=[bPAnJiCm48RtFCMfIwLAfMBjmD1IM14WcA_99JdLSQgpewf2l0tFmCJM5yDswgH1wK0MHxd_lllzvwQmheLWhT0OCadgJrZLA1by9E2UnGBUI0weB5b0fGXUzamg9vMHGACp8AbEtuNYjBIGCS6A3bGqkW0l26AIv3EvP3zWQcivzYCsOYmfPGEGDLj6nOP9719DIzaAMTk37h6YCOyPwLQFMuLD7eZULlWcL93IGyX_p11hqDJGsL8FUb9uTDVj6C-qbzEN8MrZNxJbL5oDjrztucTsxHNRQCj1DroGDcc9kQMBcxtMErUyvgSB9EUYaM3FHBxf8VUSZcVisjzFF-As88HqVZ-4mxTFtK25bcjjIjwR9FoioUq4PlDvEDiLMqA9VukpIGnphEfRKUykQZ6qcvkxTYUMa0gXTTiys3LVZrEZO1YxLtIZXvA1WJRQuE0N]--></g></svg>