<svg xmlns="http://www.w3.org/2000/svg" xmlns:xlink="http://www.w3.org/1999/xlink" contentStyleType="text/css" data-diagram-type="CLASS" height="344px" preserveAspectRatio="none" style="width:720px;height:344px;background:#FFFFFF;" version="1.1" viewBox="0 0 720 344" width="720px" zoomAndPan="magnify"><defs/><g><!--class RentScheme--><g class="entity" data-entity="RentScheme" data-source-line="2" data-uid="ent0002" id="entity_RentScheme"><rect fill="#F1F1F1" height="64.2969" rx="2.5" ry="2.5" style="stroke:#181818;stroke-width:0.5;" width="404.5469" x="166.32" y="148.3"/><ellipse cx="319.8312" cy="164.3" fill="#B4A7E5" rx="11" ry="11" style="stroke:#181818;stroke-width:1;"/><path d="M315.7531,160.0656 L315.7531,157.9094 L323.1437,157.9094 L323.1437,160.0656 L320.675,160.0656 L320.675,168.1437 L323.1437,168.1437 L323.1437,170.3 L315.7531,170.3 L315.7531,168.1437 L318.2219,168.1437 L318.2219,160.0656 L315.7531,160.0656 Z " fill="#000000"/><text fill="#000000" font-family="sans-serif" font-size="14" font-style="italic" lengthAdjust="spacing" textLength="89.0244" x="340.3312" y="169.1467">RentScheme</text><line style="stroke:#181818;stroke-width:0.5;" x1="167.32" x2="569.8669" y1="180.3" y2="180.3"/><text fill="#000000" font-family="sans-serif" font-size="14" lengthAdjust="spacing" textLength="392.5469" x="172.32" y="197.2951">// Definiert die Berechnung der Miete f&#252;r eine Immobilie</text><line style="stroke:#181818;stroke-width:0.5;" x1="167.32" x2="569.8669" y1="204.5969" y2="204.5969"/></g><!--class StreetRentScheme--><g class="entity" data-entity="StreetRentScheme" data-source-line="7" data-uid="ent0003" id="entity_StreetRentScheme"><rect fill="#F1F1F1" height="64.2969" rx="2.5" ry="2.5" style="stroke:#181818;stroke-width:0.5;" width="353.1816" x="7" y="273.59"/><ellipse cx="113.4048" cy="289.59" fill="#ADD1B2" rx="11" ry="11" style="stroke:#181818;stroke-width:1;"/><path d="M116.3735,295.2306 Q115.7954,295.5275 115.1548,295.6681 Q114.5142,295.8244 113.811,295.8244 Q111.311,295.8244 109.9829,294.1838 Q108.6704,292.5275 108.6704,289.4025 Q108.6704,286.2775 109.9829,284.6213 Q111.311,282.965 113.811,282.965 Q114.5142,282.965 115.1548,283.1213 Q115.811,283.2775 116.3735,283.5744 L116.3735,286.2931 Q115.7485,285.715 115.1548,285.4494 Q114.561,285.1681 113.936,285.1681 Q112.5923,285.1681 111.9048,286.2463 Q111.2173,287.3088 111.2173,289.4025 Q111.2173,291.4963 111.9048,292.5744 Q112.5923,293.6369 113.936,293.6369 Q114.561,293.6369 115.1548,293.3713 Q115.7485,293.09 116.3735,292.5119 L116.3735,295.2306 Z " fill="#000000"/><text fill="#000000" font-family="sans-serif" font-size="14" lengthAdjust="spacing" textLength="131.8721" x="133.9048" y="294.4367">StreetRentScheme</text><line style="stroke:#181818;stroke-width:0.5;" x1="8" x2="359.1816" y1="305.59" y2="305.59"/><text fill="#000000" font-family="sans-serif" font-size="14" lengthAdjust="spacing" textLength="341.1816" x="13" y="322.5851">// Implementiert die Mietberechnung f&#252;r Stra&#223;en</text><line style="stroke:#181818;stroke-width:0.5;" x1="8" x2="359.1816" y1="329.8869" y2="329.8869"/></g><!--class NullRentScheme--><g class="entity" data-entity="NullRentScheme" data-source-line="11" data-uid="ent0004" id="entity_NullRentScheme"><rect fill="#F1F1F1" height="64.2969" rx="2.5" ry="2.5" style="stroke:#181818;stroke-width:0.5;" width="318.2432" x="395.47" y="273.59"/><ellipse cx="492.2669" cy="289.59" fill="#ADD1B2" rx="11" ry="11" style="stroke:#181818;stroke-width:1;"/><path d="M495.2356,295.2306 Q494.6575,295.5275 494.0169,295.6681 Q493.3763,295.8244 492.6731,295.8244 Q490.1731,295.8244 488.845,294.1838 Q487.5325,292.5275 487.5325,289.4025 Q487.5325,286.2775 488.845,284.6213 Q490.1731,282.965 492.6731,282.965 Q493.3763,282.965 494.0169,283.1213 Q494.6731,283.2775 495.2356,283.5744 L495.2356,286.2931 Q494.6106,285.715 494.0169,285.4494 Q493.4231,285.1681 492.7981,285.1681 Q491.4544,285.1681 490.7669,286.2463 Q490.0794,287.3088 490.0794,289.4025 Q490.0794,291.4963 490.7669,292.5744 Q491.4544,293.6369 492.7981,293.6369 Q493.4231,293.6369 494.0169,293.3713 Q494.6106,293.09 495.2356,292.5119 L495.2356,295.2306 Z " fill="#000000"/><text fill="#000000" font-family="sans-serif" font-size="14" lengthAdjust="spacing" textLength="116.1494" x="512.7669" y="294.4367">NullRentScheme</text><line style="stroke:#181818;stroke-width:0.5;" x1="396.47" x2="712.7132" y1="305.59" y2="305.59"/><text fill="#000000" font-family="sans-serif" font-size="14" lengthAdjust="spacing" textLength="306.2432" x="401.47" y="322.5851">// Implementiert eine leere Mietberechnung</text><line style="stroke:#181818;stroke-width:0.5;" x1="396.47" x2="712.7132" y1="329.8869" y2="329.8869"/></g><!--class RentCalculator--><g class="entity" data-entity="RentCalculator" data-source-line="15" data-uid="ent0005" id="entity_RentCalculator"><rect fill="#F1F1F1" height="64.2969" rx="2.5" ry="2.5" style="stroke:#181818;stroke-width:0.5;" width="273.4609" x="106.86" y="7"/><ellipse cx="187.442" cy="23" fill="#ADD1B2" rx="11" ry="11" style="stroke:#181818;stroke-width:1;"/><path d="M190.4108,28.6406 Q189.8327,28.9375 189.192,29.0781 Q188.5514,29.2344 187.8483,29.2344 Q185.3483,29.2344 184.0202,27.5938 Q182.7077,25.9375 182.7077,22.8125 Q182.7077,19.6875 184.0202,18.0313 Q185.3483,16.375 187.8483,16.375 Q188.5514,16.375 189.192,16.5313 Q189.8483,16.6875 190.4108,16.9844 L190.4108,19.7031 Q189.7858,19.125 189.192,18.8594 Q188.5983,18.5781 187.9733,18.5781 Q186.6295,18.5781 185.942,19.6563 Q185.2545,20.7188 185.2545,22.8125 Q185.2545,24.9063 185.942,25.9844 Q186.6295,27.0469 187.9733,27.0469 Q188.5983,27.0469 189.192,26.7813 Q189.7858,26.5 190.4108,25.9219 L190.4108,28.6406 Z " fill="#000000"/><text fill="#000000" font-family="sans-serif" font-size="14" lengthAdjust="spacing" textLength="103.7969" x="207.942" y="27.8467">RentCalculator</text><line style="stroke:#181818;stroke-width:0.5;" x1="107.86" x2="379.3209" y1="39" y2="39"/><text fill="#000000" font-family="sans-serif" font-size="14" lengthAdjust="spacing" textLength="261.4609" x="112.86" y="55.9951">// Berechnet die Miete f&#252;r Immobilien</text><line style="stroke:#181818;stroke-width:0.5;" x1="107.86" x2="379.3209" y1="63.2969" y2="63.2969"/></g><!--class HousableProperty--><g class="entity" data-entity="HousableProperty" data-source-line="20" data-uid="ent0006" id="entity_HousableProperty"><rect fill="#F1F1F1" height="48" rx="2.5" ry="2.5" style="stroke:#181818;stroke-width:0.5;" width="157.0225" x="415.08" y="15.15"/><ellipse cx="430.08" cy="31.15" fill="#ADD1B2" rx="11" ry="11" style="stroke:#181818;stroke-width:1;"/><path d="M433.0488,36.7906 Q432.4706,37.0875 431.83,37.2281 Q431.1894,37.3844 430.4863,37.3844 Q427.9863,37.3844 426.6581,35.7437 Q425.3456,34.0875 425.3456,30.9625 Q425.3456,27.8375 426.6581,26.1812 Q427.9863,24.525 430.4863,24.525 Q431.1894,24.525 431.83,24.6812 Q432.4863,24.8375 433.0488,25.1344 L433.0488,27.8531 Q432.4238,27.275 431.83,27.0094 Q431.2363,26.7281 430.6113,26.7281 Q429.2675,26.7281 428.58,27.8062 Q427.8925,28.8687 427.8925,30.9625 Q427.8925,33.0562 428.58,34.1344 Q429.2675,35.1969 430.6113,35.1969 Q431.2363,35.1969 431.83,34.9312 Q432.4238,34.65 433.0488,34.0719 L433.0488,36.7906 Z " fill="#000000"/><text fill="#000000" font-family="sans-serif" font-size="14" lengthAdjust="spacing" textLength="125.0225" x="444.08" y="35.9967">HousableProperty</text><line style="stroke:#181818;stroke-width:0.5;" x1="416.08" x2="571.1025" y1="47.15" y2="47.15"/><line style="stroke:#181818;stroke-width:0.5;" x1="416.08" x2="571.1025" y1="55.15" y2="55.15"/></g><!--reverse link HousableProperty to RentScheme--><g class="link" data-entity-1="HousableProperty" data-entity-2="RentScheme" data-source-line="20" data-uid="lnk7" id="link_HousableProperty_RentScheme"><path codeLine="20" d="M464.6561,72.3918 C443.8761,95.5518 419.88,122.28 396.85,147.95" fill="none" id="HousableProperty-backto-RentScheme" style="stroke:#181818;stroke-width:1;"/><polygon fill="#181818" points="472.67,63.46,465.6858,65.2546,464.6561,72.3918,471.6403,70.5972,472.67,63.46" style="stroke:#181818;stroke-width:1;"/><text fill="#000000" font-family="sans-serif" font-size="13" lengthAdjust="spacing" textLength="22.9785" x="438.59" y="114.3669">has</text><text fill="#000000" font-family="sans-serif" font-size="13" lengthAdjust="spacing" textLength="8.271" x="458.6285" y="83.2968">1</text><text fill="#000000" font-family="sans-serif" font-size="13" lengthAdjust="spacing" textLength="8.271" x="393.6522" y="137.1553">1</text></g><!--reverse link RentScheme to StreetRentScheme--><g class="link" data-entity-1="RentScheme" data-entity-2="StreetRentScheme" data-source-line="21" data-uid="lnk8" id="link_RentScheme_StreetRentScheme"><path codeLine="21" d="M306.4514,222.8621 C278.7214,241.3421 258.76,254.65 230.99,273.15" fill="none" id="RentScheme-backto-StreetRentScheme" style="stroke:#181818;stroke-width:1;"/><polygon fill="none" points="321.43,212.88,303.1241,217.8693,309.7788,227.855,321.43,212.88" style="stroke:#181818;stroke-width:1;"/></g><!--reverse link RentScheme to NullRentScheme--><g class="link" data-entity-1="RentScheme" data-entity-2="NullRentScheme" data-source-line="22" data-uid="lnk9" id="link_RentScheme_NullRentScheme"><path codeLine="22" d="M431.0117,222.8273 C458.8817,241.3073 479.02,254.65 506.94,273.15" fill="none" id="RentScheme-backto-NullRentScheme" style="stroke:#181818;stroke-width:1;"/><polygon fill="none" points="416.01,212.88,427.6959,227.8279,434.3275,217.8267,416.01,212.88" style="stroke:#181818;stroke-width:1;"/></g><!--link RentCalculator to RentScheme--><g class="link" data-entity-1="RentCalculator" data-entity-2="RentScheme" data-source-line="23" data-uid="lnk10" id="link_RentCalculator_RentScheme"><path codeLine="23" d="M271.96,71.76 C292.41,94.55 315.903,120.7241 336.333,143.4941" fill="none" id="RentCalculator-to-RentScheme" style="stroke:#181818;stroke-width:1;stroke-dasharray:7.0,7.0;"/><polygon fill="#181818" points="340.34,147.96,337.3068,138.5898,337.0009,144.2384,331.3523,143.9324,340.34,147.96" style="stroke:#181818;stroke-width:1;"/><text fill="#000000" font-family="sans-serif" font-size="13" lengthAdjust="spacing" textLength="29.7832" x="314.59" y="114.3669">uses</text></g><!--SRC=[XP5DJiCm48NtFiMecqf8RTKjGYmeYsO1Gkq97FU5ZEIC8_yiAk0iN8HTBuQJbgODI7WprcZcU-_PKoeambVQ82Z-kT864hUcHWDwKvJFOa6Fg5WOFjAEGG_mCBKaUQKTF3qn8gWwV7a22wXe6bUoPQWFfQQqiZg4h62wIjleWVYNHj6qDZSaddKwS3bezGfvNny-8HtxI7nErlxFwvrPPDe8Eu0wo4fRawoEpW-WKrmCfavfpq7bc7I3lCbEGirjK6kNWYujNhnhiuCzJPOJkfdD-dfX-9Pg7TH5u-uz3utVwTV0TMmrCZ-VtrzhfFm5tm00]--></g></svg>