<svg xmlns="http://www.w3.org/2000/svg" xmlns:xlink="http://www.w3.org/1999/xlink" contentStyleType="text/css" data-diagram-type="CLASS" height="328px" preserveAspectRatio="none" style="width:1708px;height:328px;background:#FFFFFF;" version="1.1" viewBox="0 0 1708 328" width="1708px" zoomAndPan="magnify"><defs/><g><!--class Space--><g class="entity" data-entity="Space" data-source-line="2" data-uid="ent0002" id="entity_Space"><rect fill="#F1F1F1" height="64.2969" rx="2.5" ry="2.5" style="stroke:#181818;stroke-width:0.5;" width="392.3652" x="717.75" y="132"/><ellipse cx="888.3511" cy="148" fill="#B4A7E5" rx="11" ry="11" style="stroke:#181818;stroke-width:1;"/><path d="M884.2729,143.7656 L884.2729,141.6094 L891.6636,141.6094 L891.6636,143.7656 L889.1948,143.7656 L889.1948,151.8437 L891.6636,151.8437 L891.6636,154 L884.2729,154 L884.2729,151.8437 L886.7417,151.8437 L886.7417,143.7656 L884.2729,143.7656 Z " fill="#000000"/><text fill="#000000" font-family="sans-serif" font-size="14" font-style="italic" lengthAdjust="spacing" textLength="42.6631" x="908.8511" y="152.8467">Space</text><line style="stroke:#181818;stroke-width:0.5;" x1="718.75" x2="1109.1152" y1="164" y2="164"/><text fill="#000000" font-family="sans-serif" font-size="14" lengthAdjust="spacing" textLength="380.3652" x="723.75" y="180.9951">// Repr&#228;sentiert ein beliebiges Feld auf dem Spielbrett</text><line style="stroke:#181818;stroke-width:0.5;" x1="718.75" x2="1109.1152" y1="188.2969" y2="188.2969"/></g><!--class Property--><g class="entity" data-entity="Property" data-source-line="7" data-uid="ent0003" id="entity_Property"><rect fill="#F1F1F1" height="64.2969" rx="2.5" ry="2.5" style="stroke:#181818;stroke-width:0.5;" width="317.8604" x="7" y="257.29"/><ellipse cx="131.7832" cy="273.29" fill="#A9DCDF" rx="11" ry="11" style="stroke:#181818;stroke-width:1;"/><path d="M131.8926,268.6337 L130.7363,273.7119 L133.0645,273.7119 L131.8926,268.6337 Z M130.4082,266.3994 L133.3926,266.3994 L136.752,278.79 L134.2988,278.79 L133.5332,275.7275 L130.252,275.7275 L129.502,278.79 L127.0645,278.79 L130.4082,266.3994 Z " fill="#000000"/><text fill="#000000" font-family="sans-serif" font-size="14" font-style="italic" lengthAdjust="spacing" textLength="59.7939" x="152.2832" y="278.1367">Property</text><line style="stroke:#181818;stroke-width:0.5;" x1="8" x2="323.8604" y1="289.29" y2="289.29"/><text fill="#000000" font-family="sans-serif" font-size="14" lengthAdjust="spacing" textLength="305.8604" x="13" y="306.2851">// Basisklasse f&#252;r alle kaufbaren Immobilien</text><line style="stroke:#181818;stroke-width:0.5;" x1="8" x2="323.8604" y1="313.5869" y2="313.5869"/></g><!--class Chance--><g class="entity" data-entity="Chance" data-source-line="11" data-uid="ent0004" id="entity_Chance"><rect fill="#F1F1F1" height="64.2969" rx="2.5" ry="2.5" style="stroke:#181818;stroke-width:0.5;" width="234.1064" x="359.88" y="257.29"/><ellipse cx="446.4777" cy="273.29" fill="#ADD1B2" rx="11" ry="11" style="stroke:#181818;stroke-width:1;"/><path d="M449.4464,278.9306 Q448.8683,279.2275 448.2277,279.3681 Q447.587,279.5244 446.8839,279.5244 Q444.3839,279.5244 443.0558,277.8837 Q441.7433,276.2275 441.7433,273.1025 Q441.7433,269.9775 443.0558,268.3212 Q444.3839,266.665 446.8839,266.665 Q447.587,266.665 448.2277,266.8212 Q448.8839,266.9775 449.4464,267.2744 L449.4464,269.9931 Q448.8214,269.415 448.2277,269.1494 Q447.6339,268.8681 447.0089,268.8681 Q445.6652,268.8681 444.9777,269.9462 Q444.2902,271.0087 444.2902,273.1025 Q444.2902,275.1962 444.9777,276.2744 Q445.6652,277.3369 447.0089,277.3369 Q447.6339,277.3369 448.2277,277.0712 Q448.8214,276.79 449.4464,276.2119 L449.4464,278.9306 Z " fill="#000000"/><text fill="#000000" font-family="sans-serif" font-size="14" lengthAdjust="spacing" textLength="52.4111" x="466.9777" y="278.1367">Chance</text><line style="stroke:#181818;stroke-width:0.5;" x1="360.88" x2="592.9864" y1="289.29" y2="289.29"/><text fill="#000000" font-family="sans-serif" font-size="14" lengthAdjust="spacing" textLength="222.1064" x="365.88" y="306.2851">// Repr&#228;sentiert ein Ereignisfeld</text><line style="stroke:#181818;stroke-width:0.5;" x1="360.88" x2="592.9864" y1="313.5869" y2="313.5869"/></g><!--class CommunityChest--><g class="entity" data-entity="CommunityChest" data-source-line="15" data-uid="ent0005" id="entity_CommunityChest"><rect fill="#F1F1F1" height="64.2969" rx="2.5" ry="2.5" style="stroke:#181818;stroke-width:0.5;" width="282.6895" x="628.59" y="257.29"/><ellipse cx="705.1491" cy="273.29" fill="#ADD1B2" rx="11" ry="11" style="stroke:#181818;stroke-width:1;"/><path d="M708.1178,278.9306 Q707.5397,279.2275 706.8991,279.3681 Q706.2585,279.5244 705.5553,279.5244 Q703.0553,279.5244 701.7272,277.8837 Q700.4147,276.2275 700.4147,273.1025 Q700.4147,269.9775 701.7272,268.3212 Q703.0553,266.665 705.5553,266.665 Q706.2585,266.665 706.8991,266.8212 Q707.5553,266.9775 708.1178,267.2744 L708.1178,269.9931 Q707.4928,269.415 706.8991,269.1494 Q706.3053,268.8681 705.6803,268.8681 Q704.3366,268.8681 703.6491,269.9462 Q702.9616,271.0087 702.9616,273.1025 Q702.9616,275.1962 703.6491,276.2744 Q704.3366,277.3369 705.6803,277.3369 Q706.3053,277.3369 706.8991,277.0712 Q707.4928,276.79 708.1178,276.2119 L708.1178,278.9306 Z " fill="#000000"/><text fill="#000000" font-family="sans-serif" font-size="14" lengthAdjust="spacing" textLength="121.0713" x="725.6491" y="278.1367">CommunityChest</text><line style="stroke:#181818;stroke-width:0.5;" x1="629.59" x2="910.2795" y1="289.29" y2="289.29"/><text fill="#000000" font-family="sans-serif" font-size="14" lengthAdjust="spacing" textLength="270.6895" x="634.59" y="306.2851">// Repr&#228;sentiert ein Gemeinschaftsfeld</text><line style="stroke:#181818;stroke-width:0.5;" x1="629.59" x2="910.2795" y1="313.5869" y2="313.5869"/></g><!--class IncomeTax--><g class="entity" data-entity="IncomeTax" data-source-line="19" data-uid="ent0006" id="entity_IncomeTax"><rect fill="#F1F1F1" height="64.2969" rx="2.5" ry="2.5" style="stroke:#181818;stroke-width:0.5;" width="224.29" x="945.79" y="257.29"/><ellipse cx="1015.2192" cy="273.29" fill="#ADD1B2" rx="11" ry="11" style="stroke:#181818;stroke-width:1;"/><path d="M1018.1879,278.9306 Q1017.6098,279.2275 1016.9692,279.3681 Q1016.3286,279.5244 1015.6254,279.5244 Q1013.1254,279.5244 1011.7973,277.8837 Q1010.4848,276.2275 1010.4848,273.1025 Q1010.4848,269.9775 1011.7973,268.3212 Q1013.1254,266.665 1015.6254,266.665 Q1016.3286,266.665 1016.9692,266.8212 Q1017.6254,266.9775 1018.1879,267.2744 L1018.1879,269.9931 Q1017.5629,269.415 1016.9692,269.1494 Q1016.3754,268.8681 1015.7504,268.8681 Q1014.4067,268.8681 1013.7192,269.9462 Q1013.0317,271.0087 1013.0317,273.1025 Q1013.0317,275.1962 1013.7192,276.2744 Q1014.4067,277.3369 1015.7504,277.3369 Q1016.3754,277.3369 1016.9692,277.0712 Q1017.5629,276.79 1018.1879,276.2119 L1018.1879,278.9306 Z " fill="#000000"/><text fill="#000000" font-family="sans-serif" font-size="14" lengthAdjust="spacing" textLength="76.9316" x="1035.7192" y="278.1367">IncomeTax</text><line style="stroke:#181818;stroke-width:0.5;" x1="946.79" x2="1169.08" y1="289.29" y2="289.29"/><text fill="#000000" font-family="sans-serif" font-size="14" lengthAdjust="spacing" textLength="212.29" x="951.79" y="306.2851">// Repr&#228;sentiert ein Steuerfeld</text><line style="stroke:#181818;stroke-width:0.5;" x1="946.79" x2="1169.08" y1="313.5869" y2="313.5869"/></g><!--class FreeParking--><g class="entity" data-entity="FreeParking" data-source-line="23" data-uid="ent0007" id="entity_FreeParking"><rect fill="#F1F1F1" height="64.2969" rx="2.5" ry="2.5" style="stroke:#181818;stroke-width:0.5;" width="246.5205" x="1204.67" y="257.29"/><ellipse cx="1281.8956" cy="273.29" fill="#ADD1B2" rx="11" ry="11" style="stroke:#181818;stroke-width:1;"/><path d="M1284.8643,278.9306 Q1284.2862,279.2275 1283.6456,279.3681 Q1283.005,279.5244 1282.3018,279.5244 Q1279.8018,279.5244 1278.4737,277.8837 Q1277.1612,276.2275 1277.1612,273.1025 Q1277.1612,269.9775 1278.4737,268.3212 Q1279.8018,266.665 1282.3018,266.665 Q1283.005,266.665 1283.6456,266.8212 Q1284.3018,266.9775 1284.8643,267.2744 L1284.8643,269.9931 Q1284.2393,269.415 1283.6456,269.1494 Q1283.0518,268.8681 1282.4268,268.8681 Q1281.0831,268.8681 1280.3956,269.9462 Q1279.7081,271.0087 1279.7081,273.1025 Q1279.7081,275.1962 1280.3956,276.2744 Q1281.0831,277.3369 1282.4268,277.3369 Q1283.0518,277.3369 1283.6456,277.0712 Q1284.2393,276.79 1284.8643,276.2119 L1284.8643,278.9306 Z " fill="#000000"/><text fill="#000000" font-family="sans-serif" font-size="14" lengthAdjust="spacing" textLength="83.5693" x="1302.3956" y="278.1367">FreeParking</text><line style="stroke:#181818;stroke-width:0.5;" x1="1205.67" x2="1450.1905" y1="289.29" y2="289.29"/><text fill="#000000" font-family="sans-serif" font-size="14" lengthAdjust="spacing" textLength="234.5205" x="1210.67" y="306.2851">// Repr&#228;sentiert das Parkplatzfeld</text><line style="stroke:#181818;stroke-width:0.5;" x1="1205.67" x2="1450.1905" y1="313.5869" y2="313.5869"/></g><!--class Start--><g class="entity" data-entity="Start" data-source-line="27" data-uid="ent0008" id="entity_Start"><rect fill="#F1F1F1" height="64.2969" rx="2.5" ry="2.5" style="stroke:#181818;stroke-width:0.5;" width="215.6426" x="1486.11" y="257.29"/><ellipse cx="1572.5812" cy="273.29" fill="#ADD1B2" rx="11" ry="11" style="stroke:#181818;stroke-width:1;"/><path d="M1575.5499,278.9306 Q1574.9718,279.2275 1574.3312,279.3681 Q1573.6906,279.5244 1572.9874,279.5244 Q1570.4874,279.5244 1569.1593,277.8837 Q1567.8468,276.2275 1567.8468,273.1025 Q1567.8468,269.9775 1569.1593,268.3212 Q1570.4874,266.665 1572.9874,266.665 Q1573.6906,266.665 1574.3312,266.8212 Q1574.9874,266.9775 1575.5499,267.2744 L1575.5499,269.9931 Q1574.9249,269.415 1574.3312,269.1494 Q1573.7374,268.8681 1573.1124,268.8681 Q1571.7687,268.8681 1571.0812,269.9462 Q1570.3937,271.0087 1570.3937,273.1025 Q1570.3937,275.1962 1571.0812,276.2744 Q1571.7687,277.3369 1573.1124,277.3369 Q1573.7374,277.3369 1574.3312,277.0712 Q1574.9249,276.79 1575.5499,276.2119 L1575.5499,278.9306 Z " fill="#000000"/><text fill="#000000" font-family="sans-serif" font-size="14" lengthAdjust="spacing" textLength="34.2002" x="1593.0812" y="278.1367">Start</text><line style="stroke:#181818;stroke-width:0.5;" x1="1487.11" x2="1700.7526" y1="289.29" y2="289.29"/><text fill="#000000" font-family="sans-serif" font-size="14" lengthAdjust="spacing" textLength="203.6426" x="1492.11" y="306.2851">// Repr&#228;sentiert das Startfeld</text><line style="stroke:#181818;stroke-width:0.5;" x1="1487.11" x2="1700.7526" y1="313.5869" y2="313.5869"/></g><!--class Board--><g class="entity" data-entity="Board" data-source-line="32" data-uid="ent0009" id="entity_Board"><rect fill="#F1F1F1" height="48" rx="2.5" ry="2.5" style="stroke:#181818;stroke-width:0.5;" width="73.3916" x="877.23" y="7"/><ellipse cx="892.23" cy="23" fill="#ADD1B2" rx="11" ry="11" style="stroke:#181818;stroke-width:1;"/><path d="M895.1988,28.6406 Q894.6206,28.9375 893.98,29.0781 Q893.3394,29.2344 892.6363,29.2344 Q890.1363,29.2344 888.8081,27.5938 Q887.4956,25.9375 887.4956,22.8125 Q887.4956,19.6875 888.8081,18.0313 Q890.1363,16.375 892.6363,16.375 Q893.3394,16.375 893.98,16.5313 Q894.6363,16.6875 895.1988,16.9844 L895.1988,19.7031 Q894.5738,19.125 893.98,18.8594 Q893.3863,18.5781 892.7613,18.5781 Q891.4175,18.5781 890.73,19.6563 Q890.0425,20.7188 890.0425,22.8125 Q890.0425,24.9063 890.73,25.9844 Q891.4175,27.0469 892.7613,27.0469 Q893.3863,27.0469 893.98,26.7813 Q894.5738,26.5 895.1988,25.9219 L895.1988,28.6406 Z " fill="#000000"/><text fill="#000000" font-family="sans-serif" font-size="14" lengthAdjust="spacing" textLength="41.3916" x="906.23" y="27.8467">Board</text><line style="stroke:#181818;stroke-width:0.5;" x1="878.23" x2="949.6216" y1="39" y2="39"/><line style="stroke:#181818;stroke-width:0.5;" x1="878.23" x2="949.6216" y1="47" y2="47"/></g><!--reverse link Board to Space--><g class="link" data-entity-1="Board" data-entity-2="Space" data-source-line="32" data-uid="lnk10" id="link_Board_Space"><path codeLine="32" d="M913.93,67.44 C913.93,88.66 913.93,108.09 913.93,131.52" fill="none" id="Board-backto-Space" style="stroke:#181818;stroke-width:1;"/><polygon fill="#181818" points="913.93,55.44,909.93,61.44,913.93,67.44,917.93,61.44,913.93,55.44" style="stroke:#181818;stroke-width:1;"/><text fill="#000000" font-family="sans-serif" font-size="13" lengthAdjust="spacing" textLength="55.0278" x="914.93" y="98.0669">contains</text><text fill="#000000" font-family="sans-serif" font-size="13" lengthAdjust="spacing" textLength="8.271" x="905.0373" y="74.9084">1</text><text fill="#000000" font-family="sans-serif" font-size="13" lengthAdjust="spacing" textLength="6.5" x="907.4053" y="120.9501">*</text></g><!--reverse link Space to Property--><g class="link" data-entity-1="Space" data-entity-2="Property" data-source-line="33" data-uid="lnk11" id="link_Space_Property"><path codeLine="33" d="M699.7931,198.8352 C589.3631,216.3852 466.77,236.19 341.93,257.29 C336.42,258.22 330.82,259.18 325.16,260.15" fill="none" id="Space-backto-Property" style="stroke:#181818;stroke-width:1;"/><polygon fill="none" points="717.57,196.01,698.8514,192.9095,700.7348,204.7608,717.57,196.01" style="stroke:#181818;stroke-width:1;"/></g><!--reverse link Space to Chance--><g class="link" data-entity-1="Space" data-entity-2="Chance" data-source-line="34" data-uid="lnk12" id="link_Space_Chance"><path codeLine="34" d="M784.6361,201.6268 C719.2661,220.0668 654.37,238.38 588.99,256.82" fill="none" id="Space-backto-Chance" style="stroke:#181818;stroke-width:1;"/><polygon fill="none" points="801.96,196.74,783.0071,195.8522,786.265,207.4015,801.96,196.74" style="stroke:#181818;stroke-width:1;"/></g><!--reverse link Space to CommunityChest--><g class="link" data-entity-1="Space" data-entity-2="CommunityChest" data-source-line="35" data-uid="lnk13" id="link_Space_CommunityChest"><path codeLine="35" d="M863.548,208.288 C841.968,226.768 828.44,238.35 806.82,256.85" fill="none" id="Space-backto-CommunityChest" style="stroke:#181818;stroke-width:1;"/><polygon fill="none" points="877.22,196.58,859.6454,203.7307,867.4507,212.8453,877.22,196.58" style="stroke:#181818;stroke-width:1;"/></g><!--reverse link Space to IncomeTax--><g class="link" data-entity-1="Space" data-entity-2="IncomeTax" data-source-line="36" data-uid="lnk14" id="link_Space_IncomeTax"><path codeLine="36" d="M964.312,208.288 C985.892,226.768 999.42,238.35 1021.04,256.85" fill="none" id="Space-backto-IncomeTax" style="stroke:#181818;stroke-width:1;"/><polygon fill="none" points="950.64,196.58,960.4093,212.8453,968.2146,203.7307,950.64,196.58" style="stroke:#181818;stroke-width:1;"/></g><!--reverse link Space to FreeParking--><g class="link" data-entity-1="Space" data-entity-2="FreeParking" data-source-line="37" data-uid="lnk15" id="link_Space_FreeParking"><path codeLine="37" d="M1037.2615,201.8767 C1099.1915,220.3167 1159.82,238.38 1221.77,256.82" fill="none" id="Space-backto-FreeParking" style="stroke:#181818;stroke-width:1;"/><polygon fill="none" points="1020.01,196.74,1035.5493,207.6272,1038.9737,196.1262,1020.01,196.74" style="stroke:#181818;stroke-width:1;"/></g><!--reverse link Space to Start--><g class="link" data-entity-1="Space" data-entity-2="Start" data-source-line="38" data-uid="lnk16" id="link_Space_Start"><path codeLine="38" d="M1128.2767,196.6331 C1234.7467,213.1731 1350.58,232.76 1468.93,257.29 C1474.41,258.43 1480,259.64 1485.65,260.9" fill="none" id="Space-backto-Start" style="stroke:#181818;stroke-width:1;"/><polygon fill="none" points="1110.49,193.87,1127.3556,202.562,1129.1977,190.7043,1110.49,193.87" style="stroke:#181818;stroke-width:1;"/></g><!--SRC=[XP5DRi9038NtSmeh6oGaXDXMNO5AnGuLBk0a3h78p4GU8vN-tAR7w8wBrVorIQNIB2QZPxzlF6y6C8j2i0XAKc51ZgyxMBN7zTM1VUCnF54hXuz4GPb4WJX0JWrJpXjACAUc1DnLK98t9rEJ2wcwT-S65z9wtr9oc2SLB1IA1bE2fSJMSFkVSwQOE6sFHOBgy2c0JKEmDNQEGW4MtiUSxU1mX9yfinh3FxC-2F4cSAfiq8unUhyBhFjPJKbl0Xx9soyLDLRwYx88HVIqnkURW9NIpgBjEUT2j4JPSjZywItHOhAUja5zwTjNYg8tZQUEgsbW7GRX65BDRNBJY592DibWE1f1DimkBtK7HGoATbjt5kxVh7vzggvs3hwdz1BjLhvJwegT0BhoQUml]--></g></svg>