<svg xmlns="http://www.w3.org/2000/svg" xmlns:xlink="http://www.w3.org/1999/xlink" contentStyleType="text/css" data-diagram-type="CLASS" height="502px" preserveAspectRatio="none" style="width:1537px;height:502px;background:#FFFFFF;" version="1.1" viewBox="0 0 1537 502" width="1537px" zoomAndPan="magnify"><defs/><g><!--class Payable--><g class="entity" data-entity="Payable" data-source-line="2" data-uid="ent0002" id="entity_Payable"><rect fill="#F1F1F1" height="64.2969" rx="2.5" ry="2.5" style="stroke:#181818;stroke-width:0.5;" width="432.4102" x="465.7" y="289.6"/><ellipse cx="650.0174" cy="305.6" fill="#B4A7E5" rx="11" ry="11" style="stroke:#181818;stroke-width:1;"/><path d="M645.9393,301.3656 L645.9393,299.2094 L653.3299,299.2094 L653.3299,301.3656 L650.8611,301.3656 L650.8611,309.4437 L653.3299,309.4437 L653.3299,311.6 L645.9393,311.6 L645.9393,309.4437 L648.408,309.4437 L648.408,301.3656 L645.9393,301.3656 Z " fill="#000000"/><text fill="#000000" font-family="sans-serif" font-size="14" font-style="italic" lengthAdjust="spacing" textLength="55.2754" x="670.5174" y="310.4467">Payable</text><line style="stroke:#181818;stroke-width:0.5;" x1="466.7" x2="897.1102" y1="321.6" y2="321.6"/><text fill="#000000" font-family="sans-serif" font-size="14" lengthAdjust="spacing" textLength="420.4102" x="471.7" y="338.5951">// Definiert die F&#228;higkeit, Geld zu besitzen und zu verwalten</text><line style="stroke:#181818;stroke-width:0.5;" x1="466.7" x2="897.1102" y1="345.8969" y2="345.8969"/></g><!--class Bank--><g class="entity" data-entity="Bank" data-source-line="7" data-uid="ent0003" id="entity_Bank"><rect fill="#F1F1F1" height="64.2969" rx="2.5" ry="2.5" style="stroke:#181818;stroke-width:0.5;" width="447.7227" x="458.05" y="148.3"/><ellipse cx="660.0793" cy="164.3" fill="#ADD1B2" rx="11" ry="11" style="stroke:#181818;stroke-width:1;"/><path d="M663.048,169.9406 Q662.4699,170.2375 661.8293,170.3781 Q661.1887,170.5344 660.4855,170.5344 Q657.9855,170.5344 656.6574,168.8938 Q655.3449,167.2375 655.3449,164.1125 Q655.3449,160.9875 656.6574,159.3313 Q657.9855,157.675 660.4855,157.675 Q661.1887,157.675 661.8293,157.8313 Q662.4855,157.9875 663.048,158.2844 L663.048,161.0031 Q662.423,160.425 661.8293,160.1594 Q661.2355,159.8781 660.6105,159.8781 Q659.2668,159.8781 658.5793,160.9563 Q657.8918,162.0188 657.8918,164.1125 Q657.8918,166.2063 658.5793,167.2844 Q659.2668,168.3469 660.6105,168.3469 Q661.2355,168.3469 661.8293,168.0813 Q662.423,167.8 663.048,167.2219 L663.048,169.9406 Z " fill="#000000"/><text fill="#000000" font-family="sans-serif" font-size="14" lengthAdjust="spacing" textLength="35.1641" x="680.5793" y="169.1467">Bank</text><line style="stroke:#181818;stroke-width:0.5;" x1="459.05" x2="904.7727" y1="180.3" y2="180.3"/><text fill="#000000" font-family="sans-serif" font-size="14" lengthAdjust="spacing" textLength="435.7227" x="464.05" y="197.2951">// Verwaltet das Bankguthaben und f&#252;hrt Transaktionen durch</text><line style="stroke:#181818;stroke-width:0.5;" x1="459.05" x2="904.7727" y1="204.5969" y2="204.5969"/></g><!--class Bill--><g class="entity" data-entity="Bill" data-source-line="11" data-uid="ent0004" id="entity_Bill"><rect fill="#F1F1F1" height="64.2969" rx="2.5" ry="2.5" style="stroke:#181818;stroke-width:0.5;" width="290.2227" x="536.8" y="430.89"/><ellipse cx="667.0246" cy="446.89" fill="#ADD1B2" rx="11" ry="11" style="stroke:#181818;stroke-width:1;"/><path d="M669.9934,452.5306 Q669.4152,452.8275 668.7746,452.9681 Q668.134,453.1244 667.4309,453.1244 Q664.9309,453.1244 663.6027,451.4838 Q662.2902,449.8275 662.2902,446.7025 Q662.2902,443.5775 663.6027,441.9213 Q664.9309,440.265 667.4309,440.265 Q668.134,440.265 668.7746,440.4213 Q669.4309,440.5775 669.9934,440.8744 L669.9934,443.5931 Q669.3684,443.015 668.7746,442.7494 Q668.1809,442.4681 667.5559,442.4681 Q666.2121,442.4681 665.5246,443.5463 Q664.8371,444.6088 664.8371,446.7025 Q664.8371,448.7963 665.5246,449.8744 Q666.2121,450.9369 667.5559,450.9369 Q668.1809,450.9369 668.7746,450.6713 Q669.3684,450.39 669.9934,449.8119 L669.9934,452.5306 Z " fill="#000000"/><text fill="#000000" font-family="sans-serif" font-size="14" lengthAdjust="spacing" textLength="21.2734" x="687.5246" y="451.7367">Bill</text><line style="stroke:#181818;stroke-width:0.5;" x1="537.8" x2="826.0227" y1="462.89" y2="462.89"/><text fill="#000000" font-family="sans-serif" font-size="14" lengthAdjust="spacing" textLength="278.2227" x="542.8" y="479.8851">// Repr&#228;sentiert eine einzelne Banknote</text><line style="stroke:#181818;stroke-width:0.5;" x1="537.8" x2="826.0227" y1="487.1869" y2="487.1869"/></g><!--class PaymentHandler--><g class="entity" data-entity="PaymentHandler" data-source-line="15" data-uid="ent0005" id="entity_PaymentHandler"><rect fill="#F1F1F1" height="64.2969" rx="2.5" ry="2.5" style="stroke:#181818;stroke-width:0.5;" width="385.6934" x="894.06" y="7"/><ellipse cx="1024.1342" cy="23" fill="#ADD1B2" rx="11" ry="11" style="stroke:#181818;stroke-width:1;"/><path d="M1027.103,28.6406 Q1026.5248,28.9375 1025.8842,29.0781 Q1025.2436,29.2344 1024.5405,29.2344 Q1022.0405,29.2344 1020.7123,27.5938 Q1019.3998,25.9375 1019.3998,22.8125 Q1019.3998,19.6875 1020.7123,18.0313 Q1022.0405,16.375 1024.5405,16.375 Q1025.2436,16.375 1025.8842,16.5313 Q1026.5405,16.6875 1027.103,16.9844 L1027.103,19.7031 Q1026.478,19.125 1025.8842,18.8594 Q1025.2905,18.5781 1024.6655,18.5781 Q1023.3217,18.5781 1022.6342,19.6563 Q1021.9467,20.7188 1021.9467,22.8125 Q1021.9467,24.9063 1022.6342,25.9844 Q1023.3217,27.0469 1024.6655,27.0469 Q1025.2905,27.0469 1025.8842,26.7813 Q1026.478,26.5 1027.103,25.9219 L1027.103,28.6406 Z " fill="#000000"/><text fill="#000000" font-family="sans-serif" font-size="14" lengthAdjust="spacing" textLength="117.0449" x="1044.6342" y="27.8467">PaymentHandler</text><line style="stroke:#181818;stroke-width:0.5;" x1="895.06" x2="1278.7534" y1="39" y2="39"/><text fill="#000000" font-family="sans-serif" font-size="14" lengthAdjust="spacing" textLength="373.6934" x="900.06" y="55.9951">// Verarbeitet Zahlungen zwischen Spielern und Bank</text><line style="stroke:#181818;stroke-width:0.5;" x1="895.06" x2="1278.7534" y1="63.2969" y2="63.2969"/></g><!--class BillSelector--><g class="entity" data-entity="BillSelector" data-source-line="19" data-uid="ent0006" id="entity_BillSelector"><rect fill="#F1F1F1" height="64.2969" rx="2.5" ry="2.5" style="stroke:#181818;stroke-width:0.5;" width="362.2461" x="1167.79" y="148.3"/><ellipse cx="1305.271" cy="164.3" fill="#ADD1B2" rx="11" ry="11" style="stroke:#181818;stroke-width:1;"/><path d="M1308.2397,169.9406 Q1307.6616,170.2375 1307.021,170.3781 Q1306.3803,170.5344 1305.6772,170.5344 Q1303.1772,170.5344 1301.8491,168.8938 Q1300.5366,167.2375 1300.5366,164.1125 Q1300.5366,160.9875 1301.8491,159.3313 Q1303.1772,157.675 1305.6772,157.675 Q1306.3803,157.675 1307.021,157.8313 Q1307.6772,157.9875 1308.2397,158.2844 L1308.2397,161.0031 Q1307.6147,160.425 1307.021,160.1594 Q1306.4272,159.8781 1305.8022,159.8781 Q1304.4585,159.8781 1303.771,160.9563 Q1303.0835,162.0188 1303.0835,164.1125 Q1303.0835,166.2063 1303.771,167.2844 Q1304.4585,168.3469 1305.8022,168.3469 Q1306.4272,168.3469 1307.021,168.0813 Q1307.6147,167.8 1308.2397,167.2219 L1308.2397,169.9406 Z " fill="#000000"/><text fill="#000000" font-family="sans-serif" font-size="14" lengthAdjust="spacing" textLength="78.7842" x="1325.771" y="169.1467">BillSelector</text><line style="stroke:#181818;stroke-width:0.5;" x1="1168.79" x2="1529.0361" y1="180.3" y2="180.3"/><text fill="#000000" font-family="sans-serif" font-size="14" lengthAdjust="spacing" textLength="350.2461" x="1173.79" y="197.2951">// W&#228;hlt optimale Banknoten f&#252;r eine Zahlung aus</text><line style="stroke:#181818;stroke-width:0.5;" x1="1168.79" x2="1529.0361" y1="204.5969" y2="204.5969"/></g><!--class PaymentInformation--><g class="entity" data-entity="PaymentInformation" data-source-line="23" data-uid="ent0007" id="entity_PaymentInformation"><rect fill="#F1F1F1" height="64.2969" rx="2.5" ry="2.5" style="stroke:#181818;stroke-width:0.5;" width="415.8193" x="7" y="148.3"/><ellipse cx="139.0566" cy="164.3" fill="#ADD1B2" rx="11" ry="11" style="stroke:#181818;stroke-width:1;"/><path d="M142.0254,169.9406 Q141.4473,170.2375 140.8066,170.3781 Q140.166,170.5344 139.4629,170.5344 Q136.9629,170.5344 135.6348,168.8938 Q134.3223,167.2375 134.3223,164.1125 Q134.3223,160.9875 135.6348,159.3313 Q136.9629,157.675 139.4629,157.675 Q140.166,157.675 140.8066,157.8313 Q141.4629,157.9875 142.0254,158.2844 L142.0254,161.0031 Q141.4004,160.425 140.8066,160.1594 Q140.2129,159.8781 139.5879,159.8781 Q138.2441,159.8781 137.5566,160.9563 Q136.8691,162.0188 136.8691,164.1125 Q136.8691,166.2063 137.5566,167.2844 Q138.2441,168.3469 139.5879,168.3469 Q140.2129,168.3469 140.8066,168.0813 Q141.4004,167.8 142.0254,167.2219 L142.0254,169.9406 Z " fill="#000000"/><text fill="#000000" font-family="sans-serif" font-size="14" lengthAdjust="spacing" textLength="143.2061" x="159.5566" y="169.1467">PaymentInformation</text><line style="stroke:#181818;stroke-width:0.5;" x1="8" x2="421.8193" y1="180.3" y2="180.3"/><text fill="#000000" font-family="sans-serif" font-size="14" lengthAdjust="spacing" textLength="403.8193" x="13" y="197.2951">// Enth&#228;lt alle Informationen f&#252;r eine Zahlungstransaktion</text><line style="stroke:#181818;stroke-width:0.5;" x1="8" x2="421.8193" y1="204.5969" y2="204.5969"/></g><!--class PaymentFailedException--><g class="entity" data-entity="PaymentFailedException" data-source-line="27" data-uid="ent0008" id="entity_PaymentFailedException"><rect fill="#F1F1F1" height="64.2969" rx="2.5" ry="2.5" style="stroke:#181818;stroke-width:0.5;" width="362.1846" x="999.82" y="289.6"/><ellipse cx="1090.174" cy="305.6" fill="#ADD1B2" rx="11" ry="11" style="stroke:#181818;stroke-width:1;"/><path d="M1093.1428,311.2406 Q1092.5646,311.5375 1091.924,311.6781 Q1091.2834,311.8344 1090.5803,311.8344 Q1088.0803,311.8344 1086.7521,310.1937 Q1085.4396,308.5375 1085.4396,305.4125 Q1085.4396,302.2875 1086.7521,300.6312 Q1088.0803,298.975 1090.5803,298.975 Q1091.2834,298.975 1091.924,299.1312 Q1092.5803,299.2875 1093.1428,299.5844 L1093.1428,302.3031 Q1092.5178,301.725 1091.924,301.4594 Q1091.3303,301.1781 1090.7053,301.1781 Q1089.3615,301.1781 1088.674,302.2562 Q1087.9865,303.3187 1087.9865,305.4125 Q1087.9865,307.5062 1088.674,308.5844 Q1089.3615,309.6469 1090.7053,309.6469 Q1091.3303,309.6469 1091.924,309.3812 Q1092.5178,309.1 1093.1428,308.5219 L1093.1428,311.2406 Z " fill="#000000"/><text fill="#000000" font-family="sans-serif" font-size="14" lengthAdjust="spacing" textLength="172.9766" x="1110.674" y="310.4467">PaymentFailedException</text><line style="stroke:#181818;stroke-width:0.5;" x1="1000.82" x2="1361.0046" y1="321.6" y2="321.6"/><text fill="#000000" font-family="sans-serif" font-size="14" lengthAdjust="spacing" textLength="350.1846" x="1005.82" y="338.5951">// Wird bei fehlgeschlagenen Zahlungen geworfen</text><line style="stroke:#181818;stroke-width:0.5;" x1="1000.82" x2="1361.0046" y1="345.8969" y2="345.8969"/></g><!--class Player--><g class="entity" data-entity="Player" data-source-line="33" data-uid="ent0010" id="entity_Player"><rect fill="#F1F1F1" height="48" rx="2.5" ry="2.5" style="stroke:#181818;stroke-width:0.5;" width="75.5654" x="941.13" y="156.45"/><ellipse cx="956.13" cy="172.45" fill="#ADD1B2" rx="11" ry="11" style="stroke:#181818;stroke-width:1;"/><path d="M959.0988,178.0906 Q958.5206,178.3875 957.88,178.5281 Q957.2394,178.6844 956.5363,178.6844 Q954.0363,178.6844 952.7081,177.0438 Q951.3956,175.3875 951.3956,172.2625 Q951.3956,169.1375 952.7081,167.4813 Q954.0363,165.825 956.5363,165.825 Q957.2394,165.825 957.88,165.9813 Q958.5363,166.1375 959.0988,166.4344 L959.0988,169.1531 Q958.4738,168.575 957.88,168.3094 Q957.2863,168.0281 956.6613,168.0281 Q955.3175,168.0281 954.63,169.1063 Q953.9425,170.1688 953.9425,172.2625 Q953.9425,174.3563 954.63,175.4344 Q955.3175,176.4969 956.6613,176.4969 Q957.2863,176.4969 957.88,176.2313 Q958.4738,175.95 959.0988,175.3719 L959.0988,178.0906 Z " fill="#000000"/><text fill="#000000" font-family="sans-serif" font-size="14" lengthAdjust="spacing" textLength="43.5654" x="970.13" y="177.2967">Player</text><line style="stroke:#181818;stroke-width:0.5;" x1="942.13" x2="1015.6954" y1="188.45" y2="188.45"/><line style="stroke:#181818;stroke-width:0.5;" x1="942.13" x2="1015.6954" y1="196.45" y2="196.45"/></g><!--link Bank to Payable--><g class="link" data-entity-1="Bank" data-entity-2="Payable" data-source-line="32" data-uid="lnk9" id="link_Bank_Payable"><path codeLine="32" d="M681.91,213.06 C681.91,235.85 681.91,248.49 681.91,271.26" fill="none" id="Bank-to-Payable" style="stroke:#181818;stroke-width:1;stroke-dasharray:7.0,7.0;"/><polygon fill="none" points="681.91,289.26,687.91,271.26,675.91,271.26,681.91,289.26" style="stroke:#181818;stroke-width:1;"/><text fill="#000000" font-family="sans-serif" font-size="13" lengthAdjust="spacing" textLength="76.9082" x="682.91" y="255.6669">implements</text></g><!--link Player to Payable--><g class="link" data-entity-1="Player" data-entity-2="Payable" data-source-line="33" data-uid="lnk11" id="link_Player_Payable"><path codeLine="33" d="M940.89,203.17 C934.91,206.41 928.78,209.65 922.91,212.6 C868.08,240.09 821.2812,261.2251 773.3012,281.9751" fill="none" id="Player-to-Payable" style="stroke:#181818;stroke-width:1;stroke-dasharray:7.0,7.0;"/><polygon fill="none" points="756.78,289.12,775.6828,287.4821,770.9195,276.468,756.78,289.12" style="stroke:#181818;stroke-width:1;"/><text fill="#000000" font-family="sans-serif" font-size="13" lengthAdjust="spacing" textLength="76.9082" x="857.91" y="255.6669">implements</text></g><!--reverse link PaymentHandler to BillSelector--><g class="link" data-entity-1="PaymentHandler" data-entity-2="BillSelector" data-source-line="34" data-uid="lnk12" id="link_PaymentHandler_BillSelector"><path codeLine="34" d="M1156.9553,77.3937 C1199.8353,100.1937 1246.87,125.2 1289.69,147.96" fill="none" id="PaymentHandler-backto-BillSelector" style="stroke:#181818;stroke-width:1;"/><polygon fill="#181818" points="1146.36,71.76,1149.7798,78.1086,1156.9553,77.3937,1153.5356,71.0451,1146.36,71.76" style="stroke:#181818;stroke-width:1;"/><text fill="#000000" font-family="sans-serif" font-size="13" lengthAdjust="spacing" textLength="22.9785" x="1233.91" y="114.3669">has</text><text fill="#000000" font-family="sans-serif" font-size="13" lengthAdjust="spacing" textLength="8.271" x="1148.9566" y="91.4858">1</text><text fill="#000000" font-family="sans-serif" font-size="13" lengthAdjust="spacing" textLength="8.271" x="1269.2696" y="137.1672">1</text></g><!--link PaymentHandler to PaymentInformation--><g class="link" data-entity-1="PaymentHandler" data-entity-2="PaymentInformation" data-source-line="35" data-uid="lnk13" id="link_PaymentHandler_PaymentInformation"><path codeLine="35" d="M893.66,71.02 C750.79,93.84 562.8249,123.8735 418.8449,146.8735" fill="none" id="PaymentHandler-to-PaymentInformation" style="stroke:#181818;stroke-width:1;stroke-dasharray:7.0,7.0;"/><polygon fill="#181818" points="412.92,147.82,422.4383,150.3502,417.8574,147.0313,421.1763,142.4504,412.92,147.82" style="stroke:#181818;stroke-width:1;"/><text fill="#000000" font-family="sans-serif" font-size="13" lengthAdjust="spacing" textLength="29.7832" x="704.91" y="114.3669">uses</text></g><!--link PaymentHandler to PaymentFailedException--><g class="link" data-entity-1="PaymentHandler" data-entity-2="PaymentFailedException" data-source-line="36" data-uid="lnk14" id="link_PaymentHandler_PaymentFailedException"><path codeLine="36" d="M1085.24,71.77 C1084.44,107.21 1086.39,165.83 1103.91,212.6 C1114.58,241.09 1130.8675,264.3502 1147.8775,284.6602" fill="none" id="PaymentHandler-to-PaymentFailedException" style="stroke:#181818;stroke-width:1;stroke-dasharray:7.0,7.0;"/><polygon fill="#181818" points="1151.73,289.26,1149.0179,279.7919,1148.5196,285.4268,1142.8848,284.9285,1151.73,289.26" style="stroke:#181818;stroke-width:1;"/><text fill="#000000" font-family="sans-serif" font-size="13" lengthAdjust="spacing" textLength="44.04" x="1104.91" y="185.0169">throws</text></g><!--link BillSelector to PaymentFailedException--><g class="link" data-entity-1="BillSelector" data-entity-2="PaymentFailedException" data-source-line="37" data-uid="lnk15" id="link_BillSelector_PaymentFailedException"><path codeLine="37" d="M1310.79,213.06 C1283.29,235.85 1250.9587,262.6602 1223.4987,285.4302" fill="none" id="BillSelector-to-PaymentFailedException" style="stroke:#181818;stroke-width:1;stroke-dasharray:7.0,7.0;"/><polygon fill="#181818" points="1218.88,289.26,1228.3613,286.5944,1222.7289,286.0685,1223.2548,280.4361,1218.88,289.26" style="stroke:#181818;stroke-width:1;"/><text fill="#000000" font-family="sans-serif" font-size="13" lengthAdjust="spacing" textLength="44.04" x="1275.91" y="255.6669">throws</text></g><!--reverse link Payable to Bill--><g class="link" data-entity-1="Payable" data-entity-2="Bill" data-source-line="38" data-uid="lnk16" id="link_Payable_Bill"><path codeLine="38" d="M681.91,366.35 C681.91,389.15 681.91,407.79 681.91,430.56" fill="none" id="Payable-backto-Bill" style="stroke:#181818;stroke-width:1;"/><polygon fill="#181818" points="681.91,354.35,677.91,360.35,681.91,366.35,685.91,360.35,681.91,354.35" style="stroke:#181818;stroke-width:1;"/><text fill="#000000" font-family="sans-serif" font-size="13" lengthAdjust="spacing" textLength="22.9785" x="682.91" y="396.9569">has</text><text fill="#000000" font-family="sans-serif" font-size="13" lengthAdjust="spacing" textLength="8.271" x="673.1743" y="374.0739">1</text><text fill="#000000" font-family="sans-serif" font-size="13" lengthAdjust="spacing" textLength="6.5" x="675.3683" y="419.7692">*</text></g><!--reverse link PaymentInformation to Payable--><g class="link" data-entity-1="PaymentInformation" data-entity-2="Payable" data-source-line="39" data-uid="lnk17" id="link_PaymentInformation_Payable"><path codeLine="39" d="M332.3796,216.4892 C408.6696,239.2392 499.67,266.39 575.96,289.14" fill="none" id="PaymentInformation-backto-Payable" style="stroke:#181818;stroke-width:1;"/><polygon fill="#181818" points="320.88,213.06,325.4867,218.6078,332.3796,216.4892,327.7729,210.9414,320.88,213.06" style="stroke:#181818;stroke-width:1;"/><text fill="#000000" font-family="sans-serif" font-size="13" lengthAdjust="spacing" textLength="69.418" x="477.91" y="255.6669">references</text><text fill="#000000" font-family="sans-serif" font-size="13" lengthAdjust="spacing" textLength="8.271" x="332.3439" y="232.7858">1</text><text fill="#000000" font-family="sans-serif" font-size="13" lengthAdjust="spacing" textLength="8.271" x="547.0275" y="278.5739">2</text></g><!--SRC=[ZLFBRjj03BphAmXV0WIDW_ReGmvjapIt82aQe3TQehI4QKhONTMDs_wDFwCt_rYvyaDIdHRHGKjXPsU6mzKPt6aaNs9E8UD32VVuZ7CX-961FPUNy95ALYOVeM22c-t6SRKWZc_WbgI0TGjp2XpNfD1gz_sD_0ebacQ_ikmCFWY6O1fvMk4zwg8d_xA76ZdkzgesEfploShjRsV2dprgm4NaMcsZQ7tk4lMUa4LwmWTg_7OJI6DdcLWflTOaLYH-hIFrXwtRfM4_eHP2VkGB_TowD6TVqKchbIclLnnoPyLZmsJudSd4EhRpQ9jvh0TyJnQRHAYRo4kKtecc5ltEvbu7i0qd1k-qhFqIKm8zwRL6jzqOBOfH3Y0lqOROXtX2VuCiL5n_pwaPIponBso-32KvgSYw5xGaJA1FfQ9LxSl3j1z8EW_1SHEoRjhJwS-huxsQ0IyReQGQidl1PulzFu3nV2Pl9t1-ST6jew1duF04FPrUlPJV3Dfq7VyD_ZkD6KJdwvLrCvHypO53JqVVvplVOxz3SqVakyaW4KybULBxK_y0]--></g></svg>