<svg xmlns="http://www.w3.org/2000/svg" xmlns:xlink="http://www.w3.org/1999/xlink" contentStyleType="text/css" data-diagram-type="CLASS" height="399px" preserveAspectRatio="none" style="width:494px;height:399px;background:#FFFFFF;" version="1.1" viewBox="0 0 494 399" width="494px" zoomAndPan="magnify"><defs/><g><!--cluster model--><g class="cluster" data-entity="model" data-source-line="1" data-uid="ent0002" id="cluster_model"><path d="M8.5,6 L58.0215,6 A3.75,3.75 0 0 1 60.5215,8.5 L67.5215,28.2969 L484.5,28.2969 A2.5,2.5 0 0 1 487,30.7969 L487,390.47 A2.5,2.5 0 0 1 484.5,392.97 L8.5,392.97 A2.5,2.5 0 0 1 6,390.47 L6,8.5 A2.5,2.5 0 0 1 8.5,6" fill="none" style="stroke:#000000;stroke-width:1.5;"/><line style="stroke:#000000;stroke-width:1.5;" x1="6" x2="67.5215" y1="28.2969" y2="28.2969"/><text fill="#000000" font-family="sans-serif" font-size="14" font-weight="bold" lengthAdjust="spacing" textLength="48.5215" x="10" y="20.9951">model</text></g><!--class DiceManagerInterface--><g class="entity" data-entity="DiceManagerInterface" data-source-line="3" data-uid="ent0003" id="entity_DiceManagerInterface"><rect fill="#F1F1F1" height="113.1875" rx="2.5" ry="2.5" style="stroke:#181818;stroke-width:0.5;" width="331.3477" x="22.33" y="263.78"/><ellipse cx="106.2411" cy="279.78" fill="#B4A7E5" rx="11" ry="11" style="stroke:#181818;stroke-width:1;"/><path d="M102.163,275.5456 L102.163,273.3894 L109.5536,273.3894 L109.5536,275.5456 L107.0849,275.5456 L107.0849,283.6238 L109.5536,283.6238 L109.5536,285.78 L102.163,285.78 L102.163,283.6238 L104.6318,283.6238 L104.6318,275.5456 L102.163,275.5456 Z " fill="#000000"/><text fill="#000000" font-family="sans-serif" font-size="14" font-style="italic" lengthAdjust="spacing" textLength="155.0254" x="126.7411" y="284.6267">DiceManagerInterface</text><line style="stroke:#181818;stroke-width:0.5;" x1="23.33" x2="352.6777" y1="295.78" y2="295.78"/><line style="stroke:#181818;stroke-width:0.5;" x1="23.33" x2="352.6777" y1="303.78" y2="303.78"/><ellipse cx="33.33" cy="317.4284" fill="#84BE84" rx="3" ry="3" style="stroke:#038048;stroke-width:1;"/><text fill="#000000" font-family="sans-serif" font-size="14" lengthAdjust="spacing" textLength="94.001" x="42.33" y="320.7751">int rollDices()</text><ellipse cx="33.33" cy="333.7253" fill="#84BE84" rx="3" ry="3" style="stroke:#038048;stroke-width:1;"/><text fill="#000000" font-family="sans-serif" font-size="14" lengthAdjust="spacing" textLength="212.5361" x="42.33" y="337.072">List~Integer~ getRollHistory()</text><ellipse cx="33.33" cy="350.0222" fill="#84BE84" rx="3" ry="3" style="stroke:#038048;stroke-width:1;"/><text fill="#000000" font-family="sans-serif" font-size="14" lengthAdjust="spacing" textLength="305.3477" x="42.33" y="353.3689">void addDicesToGame(List~Dice~ diceList)</text><ellipse cx="33.33" cy="366.3191" fill="#84BE84" rx="3" ry="3" style="stroke:#038048;stroke-width:1;"/><text fill="#000000" font-family="sans-serif" font-size="14" lengthAdjust="spacing" textLength="205.5635" x="42.33" y="369.6657">void initializeStandardDices()</text></g><!--class DiceManager--><g class="entity" data-entity="DiceManager" data-source-line="10" data-uid="ent0004" id="entity_DiceManager"><rect fill="#F1F1F1" height="145.7813" rx="2.5" ry="2.5" style="stroke:#181818;stroke-width:0.5;" width="331.3477" x="81.33" y="41"/><ellipse cx="196.5805" cy="57" fill="#ADD1B2" rx="11" ry="11" style="stroke:#181818;stroke-width:1;"/><path d="M199.5492,62.6406 Q198.9711,62.9375 198.3305,63.0781 Q197.6899,63.2344 196.9867,63.2344 Q194.4867,63.2344 193.1586,61.5938 Q191.8461,59.9375 191.8461,56.8125 Q191.8461,53.6875 193.1586,52.0313 Q194.4867,50.375 196.9867,50.375 Q197.6899,50.375 198.3305,50.5313 Q198.9867,50.6875 199.5492,50.9844 L199.5492,53.7031 Q198.9242,53.125 198.3305,52.8594 Q197.7367,52.5781 197.1117,52.5781 Q195.768,52.5781 195.0805,53.6563 Q194.393,54.7188 194.393,56.8125 Q194.393,58.9063 195.0805,59.9844 Q195.768,61.0469 197.1117,61.0469 Q197.7367,61.0469 198.3305,60.7813 Q198.9242,60.5 199.5492,59.9219 L199.5492,62.6406 Z " fill="#000000"/><text fill="#000000" font-family="sans-serif" font-size="14" lengthAdjust="spacing" textLength="92.3467" x="217.0805" y="61.8467">DiceManager</text><line style="stroke:#181818;stroke-width:0.5;" x1="82.33" x2="411.6777" y1="73" y2="73"/><rect fill="none" height="6" style="stroke:#C82930;stroke-width:1;" width="6" x="89.33" y="83.6484"/><text fill="#000000" font-family="sans-serif" font-size="14" lengthAdjust="spacing" textLength="162.6338" x="101.33" y="89.9951">static List~Dice~ dices</text><rect fill="none" height="6" style="stroke:#C82930;stroke-width:1;" width="6" x="89.33" y="99.9453"/><text fill="#000000" font-family="sans-serif" font-size="14" lengthAdjust="spacing" textLength="217.54" x="101.33" y="106.292">static List~Integer~ rollHistory</text><line style="stroke:#181818;stroke-width:0.5;" x1="82.33" x2="411.6777" y1="113.5938" y2="113.5938"/><ellipse cx="92.33" cy="127.2422" fill="#84BE84" rx="3" ry="3" style="stroke:#038048;stroke-width:1;"/><text fill="#000000" font-family="sans-serif" font-size="14" lengthAdjust="spacing" textLength="94.001" x="101.33" y="130.5889">int rollDices()</text><ellipse cx="92.33" cy="143.5391" fill="#84BE84" rx="3" ry="3" style="stroke:#038048;stroke-width:1;"/><text fill="#000000" font-family="sans-serif" font-size="14" lengthAdjust="spacing" textLength="212.5361" x="101.33" y="146.8857">List~Integer~ getRollHistory()</text><ellipse cx="92.33" cy="159.8359" fill="#84BE84" rx="3" ry="3" style="stroke:#038048;stroke-width:1;"/><text fill="#000000" font-family="sans-serif" font-size="14" lengthAdjust="spacing" textLength="305.3477" x="101.33" y="163.1826">void addDicesToGame(List~Dice~ diceList)</text><ellipse cx="92.33" cy="176.1328" fill="#84BE84" rx="3" ry="3" style="stroke:#038048;stroke-width:1;"/><text fill="#000000" font-family="sans-serif" font-size="14" lengthAdjust="spacing" textLength="205.5635" x="101.33" y="179.4795">void initializeStandardDices()</text></g><!--class Dice--><g class="entity" data-entity="Dice" data-source-line="19" data-uid="ent0005" id="entity_Dice"><rect fill="#F1F1F1" height="64.2969" rx="2.5" ry="2.5" style="stroke:#181818;stroke-width:0.5;" width="81.7266" x="389.14" y="288.23"/><ellipse cx="412.5757" cy="304.23" fill="#ADD1B2" rx="11" ry="11" style="stroke:#181818;stroke-width:1;"/><path d="M415.5445,309.8706 Q414.9664,310.1675 414.3257,310.3081 Q413.6851,310.4644 412.982,310.4644 Q410.482,310.4644 409.1539,308.8238 Q407.8414,307.1675 407.8414,304.0425 Q407.8414,300.9175 409.1539,299.2613 Q410.482,297.605 412.982,297.605 Q413.6851,297.605 414.3257,297.7613 Q414.982,297.9175 415.5445,298.2144 L415.5445,300.9331 Q414.9195,300.355 414.3257,300.0894 Q413.732,299.8081 413.107,299.8081 Q411.7632,299.8081 411.0757,300.8863 Q410.3882,301.9488 410.3882,304.0425 Q410.3882,306.1363 411.0757,307.2144 Q411.7632,308.2769 413.107,308.2769 Q413.732,308.2769 414.3257,308.0113 Q414.9195,307.73 415.5445,307.1519 L415.5445,309.8706 Z " fill="#000000"/><text fill="#000000" font-family="sans-serif" font-size="14" lengthAdjust="spacing" textLength="30.9805" x="428.4504" y="309.0767">Dice</text><line style="stroke:#181818;stroke-width:0.5;" x1="390.14" x2="469.8666" y1="320.23" y2="320.23"/><line style="stroke:#181818;stroke-width:0.5;" x1="390.14" x2="469.8666" y1="328.23" y2="328.23"/><ellipse cx="400.14" cy="341.8784" fill="#84BE84" rx="3" ry="3" style="stroke:#038048;stroke-width:1;"/><text fill="#000000" font-family="sans-serif" font-size="14" lengthAdjust="spacing" textLength="55.7266" x="409.14" y="345.2251">int roll()</text></g><!--link DiceManager to DiceManagerInterface--><g class="link" data-entity-1="DiceManager" data-entity-2="DiceManagerInterface" data-source-line="23" data-uid="lnk6" id="link_DiceManager_DiceManagerInterface"><path codeLine="23" d="M226.12,187.27 C218.89,212.32 215.9045,222.6968 209.1145,246.2068" fill="none" id="DiceManager-to-DiceManagerInterface" style="stroke:#181818;stroke-width:1;stroke-dasharray:7.0,7.0;"/><polygon fill="none" points="204.12,263.5,214.8789,247.8716,203.3501,244.542,204.12,263.5" style="stroke:#181818;stroke-width:1;"/></g><!--link DiceManager to Dice--><g class="link" data-entity-1="DiceManager" data-entity-2="Dice" data-source-line="24" data-uid="lnk7" id="link_DiceManager_Dice"><path codeLine="24" d="M311.78,187.27 C342.62,221.74 373.9088,256.6989 397.8388,283.4389" fill="none" id="DiceManager-to-Dice" style="stroke:#181818;stroke-width:1;"/><polygon fill="#181818" points="401.84,287.91,398.8189,278.5359,398.5057,284.1841,392.8575,283.8709,401.84,287.91" style="stroke:#181818;stroke-width:1;"/><text fill="#000000" font-family="sans-serif" font-size="13" lengthAdjust="spacing" textLength="29.7832" x="350" y="229.8469">uses</text></g><!--SRC=[rP913i8W44NtFSKiQqnx01UkJDH4D-e59e3DH0e6q4HhUtQXJIgrzG3EWeJX_M7-m1NP1Gi1fUP2GfKau8EK4-QCJC2AcDYZyeJPzicgXKBC0mf6Inb0cywYanrPrmIHrpPG27VmsCOdjNaCmBic3iXvM-AarrYAj1M7H0FShs4xaf0YHoZfAOuE5KV3uoRgpWgJQ6ri8-e-0-lG4OEls-mFeZTZFax-SXIJBpY4uudb-Miv-HD6P9Pr82pWPlqSwpS0]--></g></svg>