<svg xmlns="http://www.w3.org/2000/svg" xmlns:xlink="http://www.w3.org/1999/xlink" contentStyleType="text/css" data-diagram-type="CLASS" height="622px" preserveAspectRatio="none" style="width:339px;height:622px;background:#FFFFFF;" version="1.1" viewBox="0 0 339 622" width="339px" zoomAndPan="magnify"><defs/><g><!--cluster model--><g class="cluster" data-entity="model" data-source-line="1" data-uid="ent0002" id="cluster_model"><path d="M8.5,6 L58.0215,6 A3.75,3.75 0 0 1 60.5215,8.5 L67.5215,28.2969 L329.5,28.2969 A2.5,2.5 0 0 1 332,30.7969 L332,613.25 A2.5,2.5 0 0 1 329.5,615.75 L8.5,615.75 A2.5,2.5 0 0 1 6,613.25 L6,8.5 A2.5,2.5 0 0 1 8.5,6" fill="none" style="stroke:#000000;stroke-width:1.5;"/><line style="stroke:#000000;stroke-width:1.5;" x1="6" x2="67.5215" y1="28.2969" y2="28.2969"/><text fill="#000000" font-family="sans-serif" font-size="14" font-weight="bold" lengthAdjust="spacing" textLength="48.5215" x="10" y="20.9951">model</text></g><!--class Game--><g class="entity" data-entity="Game" data-source-line="3" data-uid="ent0003" id="entity_Game"><rect fill="#F1F1F1" height="162.0781" rx="2.5" ry="2.5" style="stroke:#181818;stroke-width:0.5;" width="294.7617" x="21.62" y="41"/><ellipse cx="143.9115" cy="57" fill="#ADD1B2" rx="11" ry="11" style="stroke:#181818;stroke-width:1;"/><path d="M146.8803,62.6406 Q146.3021,62.9375 145.6615,63.0781 Q145.0209,63.2344 144.3178,63.2344 Q141.8178,63.2344 140.4896,61.5938 Q139.1771,59.9375 139.1771,56.8125 Q139.1771,53.6875 140.4896,52.0313 Q141.8178,50.375 144.3178,50.375 Q145.0209,50.375 145.6615,50.5313 Q146.3178,50.6875 146.8803,50.9844 L146.8803,53.7031 Q146.2553,53.125 145.6615,52.8594 Q145.0678,52.5781 144.4428,52.5781 Q143.099,52.5781 142.4115,53.6563 Q141.724,54.7188 141.724,56.8125 Q141.724,58.9063 142.4115,59.9844 Q143.099,61.0469 144.4428,61.0469 Q145.0678,61.0469 145.6615,60.7813 Q146.2553,60.5 146.8803,59.9219 L146.8803,62.6406 Z " fill="#000000"/><text fill="#000000" font-family="sans-serif" font-size="14" lengthAdjust="spacing" textLength="41.6787" x="164.4115" y="61.8467">Game</text><line style="stroke:#181818;stroke-width:0.5;" x1="22.62" x2="315.3817" y1="73" y2="73"/><rect fill="none" height="6" style="stroke:#C82930;stroke-width:1;" width="6" x="29.62" y="83.6484"/><text fill="#000000" font-family="sans-serif" font-size="14" lengthAdjust="spacing" textLength="147.2529" x="41.62" y="89.9951">List~Player~ players</text><rect fill="none" height="6" style="stroke:#C82930;stroke-width:1;" width="6" x="29.62" y="99.9453"/><text fill="#000000" font-family="sans-serif" font-size="14" lengthAdjust="spacing" textLength="123.3066" x="41.62" y="106.292">boolean isStarted</text><rect fill="none" height="6" style="stroke:#C82930;stroke-width:1;" width="6" x="29.62" y="116.2422"/><text fill="#000000" font-family="sans-serif" font-size="14" lengthAdjust="spacing" textLength="156.1123" x="41.62" y="122.5889">int currentPlayerIndex</text><line style="stroke:#181818;stroke-width:0.5;" x1="22.62" x2="315.3817" y1="129.8906" y2="129.8906"/><ellipse cx="32.62" cy="143.5391" fill="#84BE84" rx="3" ry="3" style="stroke:#038048;stroke-width:1;"/><text fill="#000000" font-family="sans-serif" font-size="14" lengthAdjust="spacing" textLength="268.7617" x="41.62" y="146.8857">void addPlayer(String id, String name)</text><ellipse cx="32.62" cy="159.8359" fill="#84BE84" rx="3" ry="3" style="stroke:#038048;stroke-width:1;"/><text fill="#000000" font-family="sans-serif" font-size="14" lengthAdjust="spacing" textLength="178.6299" x="41.62" y="163.1826">Player getCurrentPlayer()</text><ellipse cx="32.62" cy="176.1328" fill="#84BE84" rx="3" ry="3" style="stroke:#038048;stroke-width:1;"/><text fill="#000000" font-family="sans-serif" font-size="14" lengthAdjust="spacing" textLength="119.8271" x="41.62" y="179.4795">void nextPlayer()</text><ellipse cx="32.62" cy="192.4297" fill="#84BE84" rx="3" ry="3" style="stroke:#038048;stroke-width:1;"/><text fill="#000000" font-family="sans-serif" font-size="14" lengthAdjust="spacing" textLength="226.4199" x="41.62" y="195.7764">List~PlayerInfo~ getPlayerInfo()</text></g><!--class Player--><g class="entity" data-entity="Player" data-source-line="13" data-uid="ent0004" id="entity_Player"><rect fill="#F1F1F1" height="145.7813" rx="2.5" ry="2.5" style="stroke:#181818;stroke-width:0.5;" width="254.915" x="41.54" y="280.08"/><ellipse cx="142.9648" cy="296.08" fill="#ADD1B2" rx="11" ry="11" style="stroke:#181818;stroke-width:1;"/><path d="M145.9336,301.7206 Q145.3554,302.0175 144.7148,302.1581 Q144.0742,302.3144 143.3711,302.3144 Q140.8711,302.3144 139.5429,300.6738 Q138.2304,299.0175 138.2304,295.8925 Q138.2304,292.7675 139.5429,291.1113 Q140.8711,289.455 143.3711,289.455 Q144.0742,289.455 144.7148,289.6113 Q145.3711,289.7675 145.9336,290.0644 L145.9336,292.7831 Q145.3086,292.205 144.7148,291.9394 Q144.1211,291.6581 143.4961,291.6581 Q142.1523,291.6581 141.4648,292.7363 Q140.7773,293.7988 140.7773,295.8925 Q140.7773,297.9863 141.4648,299.0644 Q142.1523,300.1269 143.4961,300.1269 Q144.1211,300.1269 144.7148,299.8613 Q145.3086,299.58 145.9336,299.0019 L145.9336,301.7206 Z " fill="#000000"/><text fill="#000000" font-family="sans-serif" font-size="14" lengthAdjust="spacing" textLength="43.5654" x="163.4648" y="300.9267">Player</text><line style="stroke:#181818;stroke-width:0.5;" x1="42.54" x2="295.455" y1="312.08" y2="312.08"/><rect fill="none" height="6" style="stroke:#C82930;stroke-width:1;" width="6" x="49.54" y="322.7284"/><text fill="#000000" font-family="sans-serif" font-size="14" lengthAdjust="spacing" textLength="59.0078" x="61.54" y="329.0751">String id</text><rect fill="none" height="6" style="stroke:#C82930;stroke-width:1;" width="6" x="49.54" y="339.0253"/><text fill="#000000" font-family="sans-serif" font-size="14" lengthAdjust="spacing" textLength="85.9346" x="61.54" y="345.372">String name</text><rect fill="none" height="6" style="stroke:#C82930;stroke-width:1;" width="6" x="49.54" y="355.3222"/><text fill="#000000" font-family="sans-serif" font-size="14" lengthAdjust="spacing" textLength="70.6768" x="61.54" y="361.6689">int money</text><rect fill="none" height="6" style="stroke:#C82930;stroke-width:1;" width="6" x="49.54" y="371.6191"/><text fill="#000000" font-family="sans-serif" font-size="14" lengthAdjust="spacing" textLength="228.915" x="61.54" y="377.9657">static final int STARTING_MONEY</text><line style="stroke:#181818;stroke-width:0.5;" x1="42.54" x2="295.455" y1="385.2675" y2="385.2675"/><ellipse cx="52.54" cy="398.9159" fill="#84BE84" rx="3" ry="3" style="stroke:#038048;stroke-width:1;"/><text fill="#000000" font-family="sans-serif" font-size="14" lengthAdjust="spacing" textLength="194.4893" x="61.54" y="402.2626">void addMoney(int amount)</text><ellipse cx="52.54" cy="415.2128" fill="#84BE84" rx="3" ry="3" style="stroke:#038048;stroke-width:1;"/><text fill="#000000" font-family="sans-serif" font-size="14" lengthAdjust="spacing" textLength="226.2012" x="61.54" y="418.5595">void subtractMoney(int amount)</text></g><!--class PlayerInfo--><g class="entity" data-entity="PlayerInfo" data-source-line="22" data-uid="ent0005" id="entity_PlayerInfo"><rect fill="#F1F1F1" height="96.8906" rx="2.5" ry="2.5" style="stroke:#181818;stroke-width:0.5;" width="111.9346" x="113.03" y="502.86"/><ellipse cx="132.4729" cy="518.86" fill="#ADD1B2" rx="11" ry="11" style="stroke:#181818;stroke-width:1;"/><path d="M135.4416,524.5006 Q134.8635,524.7975 134.2229,524.9381 Q133.5822,525.0944 132.8791,525.0944 Q130.3791,525.0944 129.051,523.4538 Q127.7385,521.7975 127.7385,518.6725 Q127.7385,515.5475 129.051,513.8913 Q130.3791,512.235 132.8791,512.235 Q133.5822,512.235 134.2229,512.3913 Q134.8791,512.5475 135.4416,512.8444 L135.4416,515.5631 Q134.8166,514.985 134.2229,514.7194 Q133.6291,514.4381 133.0041,514.4381 Q131.6604,514.4381 130.9729,515.5163 Q130.2854,516.5788 130.2854,518.6725 Q130.2854,520.7663 130.9729,521.8444 Q131.6604,522.9069 133.0041,522.9069 Q133.6291,522.9069 134.2229,522.6413 Q134.8166,522.36 135.4416,521.7819 L135.4416,524.5006 Z " fill="#000000"/><text fill="#000000" font-family="sans-serif" font-size="14" lengthAdjust="spacing" textLength="70.0615" x="147.4602" y="523.7067">PlayerInfo</text><line style="stroke:#181818;stroke-width:0.5;" x1="114.03" x2="223.9646" y1="534.86" y2="534.86"/><rect fill="none" height="6" style="stroke:#C82930;stroke-width:1;" width="6" x="121.03" y="545.5084"/><text fill="#000000" font-family="sans-serif" font-size="14" lengthAdjust="spacing" textLength="59.0078" x="133.03" y="551.8551">String id</text><rect fill="none" height="6" style="stroke:#C82930;stroke-width:1;" width="6" x="121.03" y="561.8053"/><text fill="#000000" font-family="sans-serif" font-size="14" lengthAdjust="spacing" textLength="85.9346" x="133.03" y="568.152">String name</text><rect fill="none" height="6" style="stroke:#C82930;stroke-width:1;" width="6" x="121.03" y="578.1022"/><text fill="#000000" font-family="sans-serif" font-size="14" lengthAdjust="spacing" textLength="70.6768" x="133.03" y="584.4489">int money</text><line style="stroke:#181818;stroke-width:0.5;" x1="114.03" x2="223.9646" y1="591.7506" y2="591.7506"/></g><!--reverse link Game to Player--><g class="link" data-entity-1="Game" data-entity-2="Player" data-source-line="28" data-uid="lnk6" id="link_Game_Player"><path codeLine="28" d="M169,215.43 C169,240.29 169,255.52 169,279.79" fill="none" id="Game-backto-Player" style="stroke:#181818;stroke-width:1;"/><polygon fill="#181818" points="169,203.43,165,209.43,169,215.43,173,209.43,169,203.43" style="stroke:#181818;stroke-width:1;"/><text fill="#000000" font-family="sans-serif" font-size="13" lengthAdjust="spacing" textLength="22.9785" x="170" y="246.1469">has</text><text fill="#000000" font-family="sans-serif" font-size="13" lengthAdjust="spacing" textLength="8.271" x="160.6678" y="223.1417">1</text><text fill="#000000" font-family="sans-serif" font-size="13" lengthAdjust="spacing" textLength="6.5" x="162.7295" y="268.9214">*</text></g><!--link Player to PlayerInfo--><g class="link" data-entity-1="Player" data-entity-2="PlayerInfo" data-source-line="29" data-uid="lnk7" id="link_Player_PlayerInfo"><path codeLine="29" d="M169,426.24 C169,451.72 169,473.7 169,496.63" fill="none" id="Player-to-PlayerInfo" style="stroke:#181818;stroke-width:1;"/><polygon fill="#181818" points="169,502.63,173,493.63,169,497.63,165,493.63,169,502.63" style="stroke:#181818;stroke-width:1;"/><text fill="#000000" font-family="sans-serif" font-size="13" lengthAdjust="spacing" textLength="73.4297" x="170" y="468.9269">converts to</text></g><!--SRC=[hL8zJyCm4DtxAqwPqa86rWv82A4g4Ys8T652L_iQB99pPL-gLgZvxUIBOhKPyMBxtVFplQVReVh2dA2qcWhudaoWMQf0xs619JK832k1P-EbVYtmIAw6NRVxeBonjY1aC3uJT48wg1aMK9LpnD8BfApfS2RSmDuQ3QXrNuqpSOPpCFeMXYCttKo31pqHSfB7K3UUNeeo7SPgWPcKjxPkbVwk0_KKvZ7y62PoRlCQQ_kz2A2qJCS0yu9Y56mDOz4HilN3spfTBJwMBwkdzv5qbgr2t5Anj1NBbLbVRSIXad7YY9tMxBzO6hIxeOdk8fWb2KIpw3UrENnYFom3a2JtOGjpK9RtvCI3sCdf1m00]--></g></svg>